<svg width="13" height="12" viewBox="0 0 13 12" fill="none" xmlns="http://www.w3.org/2000/svg">
<path d="M0.781364 6.98212C0.834557 6.99141 0.888389 6.9957 0.94225 6.99495L10.1135 6.99495L9.91351 7.09506C9.71804 7.19465 9.54021 7.33018 9.38798 7.49553L6.81614 10.2637C6.47742 10.6117 6.4205 11.1716 6.68126 11.5902C6.98475 12.0363 7.56676 12.1332 7.98126 11.8065C8.01474 11.7801 8.04657 11.7514 8.07648 11.7204L12.7272 6.71463C13.0907 6.32386 13.091 5.68998 12.7279 5.29878C12.7277 5.29853 12.7274 5.29825 12.7272 5.298L8.07648 0.29224C7.71274 -0.0981784 7.12381 -0.097302 6.76105 0.294211C6.73251 0.325027 6.70586 0.357814 6.68127 0.392354C6.42051 0.810992 6.47742 1.37085 6.81614 1.71888L9.38333 4.49207C9.5198 4.63911 9.67671 4.76241 9.8484 4.85749L10.1274 4.99265L0.993436 4.99265C0.518279 4.97366 0.1014 5.33091 0.0121351 5.83361C-0.0700955 6.3794 0.274291 6.89358 0.781364 6.98212Z" fill="white"/>
</svg>
