<svg width="19" height="24" viewBox="0 0 19 24" fill="none" xmlns="http://www.w3.org/2000/svg">
<path d="M16.6997 9.79439H16.1558V7.84406C16.1558 7.83487 16.1551 7.82587 16.1544 7.81687H16.1558V5.98697C16.1558 5.53467 15.7878 5.16666 15.3355 5.16666H13.3901C12.9378 5.16666 12.5698 5.53467 12.5698 5.98697V7.81687H12.5711C12.5704 7.82587 12.5698 7.83487 12.5698 7.84406V9.79434H11.7771C11.592 9.4072 11.3384 9.05231 11.0244 8.75175L10.3227 8.07989C9.75765 7.53891 9.43356 6.77995 9.43356 5.99761V0.820312C9.43356 0.368016 9.06554 0 8.61325 0H5.87331C5.42101 0 5.053 0.368016 5.053 0.820312V5.99761C5.053 6.77995 4.7289 7.53891 4.16383 8.07989L3.46211 8.75175C2.75922 9.42469 2.35604 10.3688 2.35604 11.3419V15.4331C2.35604 15.6272 2.5134 15.7846 2.70761 15.7846C2.90181 15.7846 3.05917 15.6272 3.05917 15.4331V12.1509H11.4273V19.8065H5.78045L5.97029 17.6393C5.99031 17.4108 5.91287 17.1827 5.7579 17.0136C5.60293 16.8444 5.38248 16.7475 5.15312 16.7475H0.820278C0.590872 16.7475 0.370419 16.8444 0.215497 17.0136C0.0604816 17.1827 -0.0169091 17.4108 0.00310649 17.6393L0.494732 23.2512C0.532091 23.6781 0.883372 24 1.3119 24H4.6615C5.09003 24 5.44131 23.6781 5.47871 23.2513L5.7189 20.5097H11.4273V23.2969H6.81934C6.62514 23.2969 6.46778 23.4543 6.46778 23.6484C6.46778 23.8426 6.62514 24 6.81934 24H17.4497C17.902 24 18.2701 23.632 18.2701 23.1797V11.3647C18.2701 10.4988 17.5656 9.79439 16.6997 9.79439ZM13.2729 5.98697C13.2729 5.92238 13.3254 5.86978 13.3901 5.86978H15.3355C15.4001 5.86978 15.4527 5.92238 15.4527 5.98697V7.49255H13.2729V5.98697ZM4.91359 21.6447H1.05981L0.887685 19.68H5.08572L4.91359 21.6447ZM0.733888 17.4886C0.746872 17.4744 0.775419 17.4506 0.820278 17.4506H5.15317C5.19803 17.4506 5.22653 17.4744 5.23956 17.4886C5.25259 17.5028 5.27383 17.5334 5.26989 17.5781L5.14736 18.9769H0.826091L0.703559 17.5781C0.699575 17.5333 0.72081 17.5028 0.733888 17.4886ZM4.6615 23.2969H1.3119C1.25068 23.2969 1.20048 23.2509 1.19518 23.1899L1.1214 22.3478H4.852L4.77821 23.19C4.77292 23.2509 4.72267 23.2969 4.6615 23.2969ZM5.75607 3.11719H8.73039V4.09092H5.75607V3.11719ZM5.87326 0.703125H8.6132C8.67784 0.703125 8.73039 0.755719 8.73039 0.820312V2.41406H5.75607V0.820312C5.75607 0.755719 5.80862 0.703125 5.87326 0.703125ZM3.05917 11.4478V11.342C3.05917 10.5597 3.38326 9.80067 3.94834 9.25969L4.65006 8.58783C5.35295 7.91489 5.75612 6.97078 5.75612 5.99766V4.79409H8.73043V5.99766C8.73043 6.97078 9.13356 7.91484 9.83645 8.58783L10.5382 9.25969C11.1033 9.80072 11.4274 10.5597 11.4274 11.342V11.4478H3.05917ZM17.4497 23.2969H12.1305V11.342C12.1305 11.0558 12.0947 10.7725 12.0276 10.4975H12.687C13.0101 10.4975 13.2729 10.2347 13.2729 9.91158V8.19563H15.4527V9.91153C15.4527 10.2346 15.7155 10.4975 16.0386 10.4975H16.6997C17.1779 10.4975 17.5669 10.8865 17.5669 11.3647V13.3992H13.2769C13.0827 13.3992 12.9253 13.5566 12.9253 13.7508C12.9253 13.9449 13.0827 14.1023 13.2769 14.1023H17.5669V20.4192H13.2769C13.0827 20.4192 12.9253 20.5766 12.9253 20.7708C12.9253 20.9649 13.0827 21.1223 13.2769 21.1223H17.5669V23.1797C17.5669 23.2443 17.5144 23.2969 17.4497 23.2969Z" fill="#7C68CB"/>
<path d="M14.5274 18.3952C15.4357 18.3952 16.1746 17.6563 16.1746 16.7481C16.1746 15.8399 15.4357 15.101 14.5274 15.101C13.6192 15.101 12.8803 15.8399 12.8803 16.7481C12.8803 17.6563 13.6192 18.3952 14.5274 18.3952ZM14.5274 15.8041C15.0479 15.8041 15.4714 16.2276 15.4714 16.7481C15.4714 17.2686 15.048 17.692 14.5274 17.692C14.0069 17.692 13.5834 17.2686 13.5834 16.7481C13.5834 16.2276 14.0069 15.8041 14.5274 15.8041Z" fill="#7C68CB"/>
<path d="M15.7779 18.9568H13.2769C13.0827 18.9568 12.9253 19.1142 12.9253 19.3083C12.9253 19.5025 13.0827 19.6599 13.2769 19.6599H15.7779C15.9721 19.6599 16.1295 19.5025 16.1295 19.3083C16.1295 19.1142 15.9721 18.9568 15.7779 18.9568Z" fill="#7C68CB"/>
<path d="M9.10257 16.1274C9.55487 16.1274 9.92289 15.7594 9.92289 15.3071V14.2196C9.92289 13.7673 9.55487 13.3993 9.10257 13.3993H5.38389C4.93159 13.3993 4.56357 13.7673 4.56357 14.2196V15.3071C4.56357 15.7594 4.93159 16.1274 5.38389 16.1274H9.10257ZM5.2667 15.3071V14.2196C5.2667 14.155 5.31925 14.1024 5.38389 14.1024H9.10257C9.16722 14.1024 9.21976 14.155 9.21976 14.2196V15.3071C9.21976 15.3717 9.16722 15.4243 9.10257 15.4243H5.38389C5.31925 15.4243 5.2667 15.3717 5.2667 15.3071Z" fill="#7C68CB"/>
</svg>
