<svg width="19" height="12" viewBox="0 0 19 12" fill="none" xmlns="http://www.w3.org/2000/svg">
<g id="Vector">
<path d="M9.50005 8.85952C11.1155 8.85952 12.4251 7.57999 12.4251 6.00161C12.4251 4.42323 11.1155 3.1437 9.50005 3.1437C7.88456 3.1437 6.57496 4.42323 6.57496 6.00161C6.57496 7.57999 7.88456 8.85952 9.50005 8.85952Z" fill="#DEE2E6"/>
<path d="M18.7086 5.20997C16.4601 2.55533 13.0566 0 9.50005 0C5.94277 0 2.53845 2.55712 0.291503 5.20997C-0.0971678 5.66867 -0.0971678 6.33456 0.291503 6.79325C0.856411 7.46022 2.04071 8.74771 3.62245 9.87265C7.60602 12.706 11.3853 12.7122 15.3776 9.87265C16.9594 8.74771 18.1437 7.46022 18.7086 6.79325C19.0961 6.33545 19.0981 5.67017 18.7086 5.20997ZM9.50005 2.00054C11.7582 2.00054 13.5952 3.79531 13.5952 6.00161C13.5952 8.20792 11.7582 10.0027 9.50005 10.0027C7.24188 10.0027 5.40492 8.20792 5.40492 6.00161C5.40492 3.79531 7.24188 2.00054 9.50005 2.00054Z" fill="#DEE2E6"/>
</g>
</svg>
