<svg width="26" height="20" viewBox="0 0 26 20" fill="none" xmlns="http://www.w3.org/2000/svg">
<path d="M8.92931 17.5039C8.71897 17.5039 8.54845 17.6744 8.54845 17.8848V19.513C8.54845 19.7233 8.71897 19.8939 8.92931 19.8939C9.13964 19.8939 9.31017 19.7233 9.31017 19.513V17.8848C9.31017 17.6744 9.13964 17.5039 8.92931 17.5039Z" fill="#7C68CB"/>
<path d="M17.0706 17.5039C16.8603 17.5039 16.6898 17.6744 16.6898 17.8848V19.513C16.6898 19.7233 16.8603 19.8939 17.0706 19.8939C17.281 19.8939 17.4515 19.7233 17.4515 19.513V17.8848C17.4515 17.6744 17.281 17.5039 17.0706 17.5039Z" fill="#7C68CB"/>
<path d="M5.84303 9.40279C4.95863 8.96059 3.30047 8.95551 3.23029 8.95551C3.02001 8.95551 2.84953 9.12593 2.84948 9.33627C2.84943 9.54655 3.01985 9.71713 3.23019 9.71723C3.65868 9.71748 4.90206 9.7839 5.50239 10.0841C5.55708 10.1114 5.61518 10.1243 5.67241 10.1243C5.81211 10.1243 5.94663 10.0472 6.01335 9.91375C6.10745 9.72561 6.03118 9.49684 5.84303 9.40279Z" fill="#7C68CB"/>
<path d="M2.00911 16.6898C1.79877 16.6898 1.62825 16.8603 1.62825 17.0706V19.5131C1.62825 19.7234 1.79877 19.8939 2.00911 19.8939C2.21944 19.8939 2.38996 19.7234 2.38996 19.5131V17.0706C2.38996 16.8604 2.21949 16.6898 2.00911 16.6898Z" fill="#7C68CB"/>
<path d="M25.1143 15.2674L23.572 14.4963C23.5631 14.4919 23.5575 14.4828 23.5575 14.4729L23.5576 13.6977C24.1907 13.2618 24.6389 12.5725 24.751 11.7637C25.0358 11.2716 25.1858 10.7157 25.1858 10.1505C25.1858 9.09658 24.6783 8.15906 23.895 7.56908C23.9409 7.41618 23.9646 7.25845 23.9646 7.09753C23.9646 6.10191 23.0633 5.2919 21.9555 5.2919C20.8477 5.2919 19.9464 6.10191 19.9464 7.09753C19.9464 7.25866 19.9699 7.41644 20.0158 7.56924C19.5488 7.92105 19.1805 8.39676 18.9588 8.94672C18.8644 8.019 18.7661 6.92228 18.6718 5.64473C18.5474 3.9591 17.9411 2.5356 16.9187 1.52821C15.904 0.528429 14.549 0 13 0C11.451 0 10.0959 0.528429 9.08135 1.52816C8.05892 2.5356 7.45269 3.9591 7.32828 5.64468C7.29522 6.09221 7.26171 6.51639 7.22804 6.92015H3.6374C2.30511 6.92015 1.22119 8.00407 1.22119 9.33637V9.35907C1.22119 9.66934 1.29451 9.98007 1.4333 10.2576L1.62825 10.6475V11.2694C1.62825 12.2548 2.11387 13.1391 2.84943 13.6712V14.2213C2.84943 14.2918 2.80205 14.3546 2.73426 14.374L1.16192 14.8232C0.4778 15.0186 0 15.6521 0 16.3636V19.5131C0 19.7234 0.170523 19.8939 0.380859 19.8939C0.591194 19.8939 0.761717 19.7234 0.761717 19.5131V16.3636C0.761717 15.9903 1.01237 15.6581 1.37119 15.5555L2.94358 15.1063C3.0003 15.0901 3.05418 15.0681 3.10547 15.042L4.07067 16.0072V19.5131C4.07067 19.7234 4.24119 19.8939 4.45153 19.8939C4.66186 19.8939 4.83239 19.7234 4.83239 19.5131V16.0072L5.80434 15.0352C5.93424 15.099 6.06368 15.136 6.15854 15.1632L6.54462 15.2734C6.02143 15.6455 5.69897 16.2523 5.69897 16.9102V19.513C5.69897 19.7233 5.86949 19.8938 6.07982 19.8938C6.29016 19.8938 6.46068 19.7233 6.46068 19.513V16.9102C6.46068 16.4165 6.75252 15.9686 7.20417 15.7692L9.38167 14.8074C10.064 16.1739 11.4584 17.0444 13 17.0444C14.5474 17.0444 15.9371 16.1758 16.619 14.8077L18.7959 15.7692C19.2475 15.9686 19.5394 16.4165 19.5394 16.9102V19.513C19.5394 19.7233 19.7099 19.8938 19.9202 19.8938C20.1306 19.8938 20.3011 19.7233 20.3011 19.513V16.9102C20.3011 16.423 20.124 15.9641 19.8201 15.6073L20.4095 15.3126L20.852 15.7331C21.1614 16.0272 21.5584 16.1742 21.9556 16.1742C22.3526 16.1742 22.7498 16.0271 23.0592 15.7331L23.5016 15.3126L24.7737 15.9487C25.0603 16.0919 25.2383 16.38 25.2383 16.7003V19.513C25.2383 19.7233 25.4088 19.8939 25.6191 19.8939C25.8295 19.8939 26 19.7233 26 19.513V16.7003C25.9999 16.0897 25.6606 15.5406 25.1143 15.2674ZM21.9555 6.05357C22.6433 6.05357 23.2029 6.52187 23.2029 7.09748C23.2029 7.1216 23.2009 7.14552 23.199 7.16938C22.816 7.00902 22.396 6.92015 21.9555 6.92015C21.5151 6.92015 21.095 7.00902 20.7122 7.16933C20.7102 7.14547 20.7081 7.1216 20.7081 7.09748C20.7081 6.52187 21.2677 6.05357 21.9555 6.05357ZM4.45158 15.3109L3.58373 14.443C3.60165 14.3715 3.61125 14.2971 3.61125 14.2212V14.0605C3.85084 14.1392 4.10352 14.1859 4.365 14.1937C4.3943 14.1946 4.42344 14.195 4.45264 14.195C4.74149 14.195 5.02347 14.1514 5.2918 14.0682V14.2211C5.2918 14.3037 5.30028 14.3786 5.31536 14.4471L4.45158 15.3109ZM4.38785 13.4322C3.2862 13.3993 2.38996 12.4289 2.38996 11.2694V10.5576C2.38996 10.4985 2.3762 10.4401 2.34975 10.3873L2.11458 9.91695C2.02845 9.7446 1.9829 9.55173 1.9829 9.35907V9.33637C1.9829 8.42409 2.72512 7.68187 3.6374 7.68187H6.9202V9.26294C6.9202 9.51842 6.85982 9.77431 6.74551 10.0028L6.55331 10.3872C6.52685 10.4401 6.51309 10.4984 6.51309 10.5576V11.3717C6.51309 11.934 6.29077 12.4595 5.88706 12.8512C5.48355 13.2428 4.95081 13.4493 4.38785 13.4322ZM7.57096 14.7745L6.3678 14.4307C6.05347 14.341 6.05352 14.3059 6.05352 14.2212L6.05362 13.6964C6.18154 13.6078 6.30352 13.5086 6.41762 13.3979C6.4944 13.3234 6.5659 13.245 6.63293 13.1637C6.69412 13.2879 6.78792 13.3963 6.90913 13.4747C7.21443 13.6724 7.79054 14.0008 8.63777 14.3033L7.57096 14.7745ZM13 16.2827C11.7608 16.2827 10.6385 15.5901 10.0789 14.4995L10.6333 14.2547C11.0659 14.0636 11.3455 13.6345 11.3455 13.1616V12.2477C11.8572 12.4533 12.4156 12.5667 13 12.5667C13.5844 12.5667 14.1427 12.4533 14.6545 12.2477V13.1616C14.6545 13.6345 14.934 14.0636 15.3667 14.2547L15.921 14.4995C15.3617 15.5912 14.2438 16.2827 13 16.2827ZM16.3025 13.8353L15.6744 13.5579C15.5176 13.4886 15.4162 13.333 15.4162 13.1615V11.8521C16.6401 11.0581 17.4516 9.6796 17.4516 8.11513V7.401C17.4516 6.93686 17.2542 6.49902 16.9101 6.19982C16.1449 5.53428 14.4127 4.37287 11.4096 4.07255C11.2009 4.05162 11.0137 4.20427 10.9927 4.41364C10.9718 4.62296 11.1245 4.80958 11.3338 4.83051C14.1271 5.1098 15.7133 6.16844 16.4103 6.77461C16.588 6.92909 16.6898 7.15745 16.6898 7.401V8.11513C16.6898 10.1497 15.0346 11.8049 13 11.8049C10.9655 11.8049 9.31022 10.1497 9.31022 8.11513V7.79653C9.31022 7.65018 9.39137 7.51612 9.52726 7.43786C10.0034 7.1637 10.6314 6.65578 10.919 5.79316C10.9855 5.59365 10.8776 5.37793 10.6781 5.3114C10.4786 5.24488 10.2628 5.35274 10.1963 5.55231C9.98444 6.18789 9.50882 6.56951 9.14716 6.77776C8.77788 6.99038 8.54845 7.38079 8.54845 7.79658V8.11518C8.54845 9.6797 9.35983 11.0581 10.5838 11.8522V13.1616C10.5838 13.333 10.4824 13.4886 10.3256 13.5579L9.69747 13.8353C8.4708 13.5071 7.68481 13.0695 7.3231 12.8354C7.31589 12.8307 7.31183 12.8254 7.31386 12.8134C7.4467 12.0281 7.78805 9.76298 8.08797 5.70079C8.19857 4.20199 8.72694 2.94668 9.61597 2.0707C10.4851 1.21438 11.6552 0.761717 13 0.761717C14.3447 0.761717 15.5149 1.21438 16.384 2.0707C17.273 2.94668 17.8014 4.20194 17.912 5.70074C18.2119 9.76278 18.5532 12.028 18.6861 12.8133C18.6882 12.8254 18.6841 12.8307 18.6769 12.8354C18.3146 13.0698 17.5286 13.5072 16.3025 13.8353ZM20.3534 14.4728C20.3534 14.4828 20.3479 14.4918 20.339 14.4963L19.1457 15.0929C19.1315 15.0863 19.1179 15.0788 19.1036 15.0725L17.3623 14.3034C18.2091 14.001 18.7851 13.6728 19.0908 13.4748C19.3535 13.3048 19.4895 12.9953 19.4372 12.6863C19.4344 12.6694 19.4313 12.6509 19.4282 12.6326C19.6424 13.0633 19.9627 13.4287 20.3534 13.6977V14.4728ZM22.5343 15.181C22.2097 15.4895 21.7012 15.4895 21.3766 15.181L21.0226 14.8446C21.0823 14.7327 21.1151 14.6057 21.1151 14.4728V14.0675C21.3811 14.1501 21.6632 14.195 21.9554 14.195C22.2476 14.195 22.5298 14.1501 22.7957 14.0675L22.7957 14.4727C22.7957 14.6057 22.8285 14.7327 22.8882 14.8447L22.5343 15.181ZM21.9555 13.4332C20.901 13.4332 20.0202 12.6435 19.9068 11.5964C19.9007 11.5403 19.8823 11.4862 19.8527 11.4381C19.6134 11.0483 19.4869 10.603 19.4869 10.1504C19.4869 8.7893 20.5942 7.68187 21.9555 7.68187C23.3167 7.68187 24.4241 8.7893 24.4241 10.1505C24.4241 10.4129 24.3813 10.6728 24.2989 10.9209C23.2174 9.82224 21.315 9.39167 21.2233 9.37146C21.1107 9.34663 20.9928 9.37425 20.9028 9.44651C20.8129 9.51883 20.7605 9.62801 20.7605 9.74338C20.7605 9.74587 20.7431 10.0101 20.465 10.2882C20.3163 10.4369 20.3163 10.6781 20.465 10.8268C20.6137 10.9755 20.8549 10.9755 21.0036 10.8268C21.2178 10.6126 21.3436 10.3952 21.4175 10.2116C22.0583 10.402 23.3884 10.8828 23.9854 11.7267C23.816 12.7083 22.9657 13.4332 21.9555 13.4332Z" fill="#7C68CB"/>
<path d="M23.9908 17.193C23.7805 17.193 23.61 17.3635 23.61 17.5739V19.5131C23.61 19.7234 23.7805 19.8939 23.9908 19.8939C24.2012 19.8939 24.3717 19.7234 24.3717 19.5131V17.5739C24.3717 17.3635 24.2012 17.193 23.9908 17.193Z" fill="#7C68CB"/>
</svg>
