<svg width="22" height="21" viewBox="0 0 22 21" fill="none" xmlns="http://www.w3.org/2000/svg">
<path d="M21.546 1.41687H5.27784V0.440204C5.27784 0.323403 5.23063 0.211885 5.14528 0.129714C5.05993 0.0475422 4.94431 0 4.82385 0C4.77542 0 0 0.0539984 0 4.62449V19.7998C0 20.0428 0.202179 20.24 0.453995 20.24H21.546C21.7966 20.24 22 20.0428 22 19.7998V1.85707C22 1.61408 21.7966 1.41687 21.546 1.41687ZM0.90799 4.62449C0.90799 1.66338 3.33535 1.04416 4.36985 0.915038V15.2088C3.5799 15.3015 1.93886 15.6478 0.90799 16.9332V4.62449ZM21.092 19.3596H16.1949V18.0918H15.2869V19.3596H0.936441C1.22821 16.1191 4.67252 16.0557 4.82385 16.0557C5.07567 16.0557 5.27784 15.8585 5.27784 15.6155V9.26718H6.18584V8.38677H5.27784V2.29728H15.2869V3.56507H16.1949V2.29728H21.092V19.3596Z" fill="#7C68CB"/>
<path d="M10.2718 8.38677H11.6338V9.26718H10.2718V8.38677Z" fill="#7C68CB"/>
<path d="M7.54782 8.38677H8.90981V9.26718H7.54782V8.38677Z" fill="#7C68CB"/>
<path d="M12.9958 8.38677H14.3577V9.26718H12.9958V8.38677Z" fill="#7C68CB"/>
<path d="M15.2869 10.1681H16.1949V11.4887H15.2869V10.1681Z" fill="#7C68CB"/>
<path d="M15.2869 4.88568H16.1949V6.20629H15.2869V4.88568Z" fill="#7C68CB"/>
<path d="M15.2869 7.5269H16.1949V8.84752H15.2869V7.5269Z" fill="#7C68CB"/>
<path d="M15.2869 12.8094H16.1949V14.13H15.2869V12.8094Z" fill="#7C68CB"/>
<path d="M15.2869 15.4506H16.1949V16.7712H15.2869V15.4506Z" fill="#7C68CB"/>
<path d="M19.3245 14.1094H20.6864V14.9898H19.3245V14.1094Z" fill="#7C68CB"/>
<path d="M16.6005 14.1094H17.9625V14.9898H16.6005V14.1094Z" fill="#7C68CB"/>
<path d="M11.3063 12.3862C11.1374 12.3187 10.9407 12.3562 10.8111 12.4824L8.8299 14.4035L6.84746 12.4824C6.71731 12.3562 6.52361 12.3187 6.35351 12.3862C6.18341 12.4548 6.07324 12.6157 6.07324 12.7929V17.1216C6.07324 17.3652 6.27542 17.5618 6.52724 17.5618C6.77784 17.5618 6.98123 17.3652 6.98123 17.1216V13.8559L8.50968 15.3379C8.67978 15.5028 8.98123 15.5016 9.15194 15.3379L10.6792 13.8559V17.1216C10.6792 17.3652 10.8826 17.5618 11.1332 17.5618C11.3838 17.5618 11.5872 17.3652 11.5872 17.1216V12.7929C11.5866 12.6157 11.4752 12.4554 11.3063 12.3862Z" fill="#7C68CB"/>
<path d="M14.0387 12.7201H13.9062C14.2125 12.3498 14.2694 12.0094 14.2621 11.7869C14.25 11.3837 14.0079 11.0292 13.6459 10.883C12.9165 10.5878 12.2246 11.1929 12.1477 11.2622C11.9643 11.4289 11.9564 11.7077 12.1277 11.8843C12.3002 12.0628 12.5878 12.0698 12.77 11.9037C12.8644 11.818 13.1471 11.6355 13.2972 11.6959C13.3172 11.7047 13.3529 11.7382 13.3553 11.8133C13.3614 12.0287 13.1011 12.4073 12.3456 12.7647C12.1556 12.854 12.0551 13.0594 12.1023 13.2595C12.1495 13.4597 12.3329 13.6005 12.5442 13.6005H14.0387C14.2906 13.6005 14.4927 13.4033 14.4927 13.1603C14.4927 12.9174 14.2906 12.7201 14.0387 12.7201Z" fill="#7C68CB"/>
</svg>
