<svg width="16" height="16" viewBox="0 0 16 16" fill="none" xmlns="http://www.w3.org/2000/svg">
<path d="M13.1263 0H2.87372C1.28909 0 0 1.28909 0 2.87372V13.1263C0 14.7109 1.28909 16 2.87372 16H13.1263C14.7109 16 16 14.7109 16 13.1263V2.87372C16 1.28909 14.7109 0 13.1263 0ZM13.5216 12.4863H8.39372C7.94303 13.8203 6.04978 13.8224 5.59844 12.4863H2.47844C1.85587 12.4863 1.85572 11.5451 2.47844 11.5451H5.59844C6.04909 10.211 7.94238 10.209 8.39372 11.5451H13.5216C14.1441 11.5451 14.1443 12.4863 13.5216 12.4863ZM13.5216 8.47059H12.4094C11.9587 9.80466 10.0655 9.80669 9.61409 8.47059H2.47844C1.85587 8.47059 1.85572 7.52941 2.47844 7.52941H9.61413C10.0648 6.19534 11.9581 6.19331 12.4094 7.52941H13.5216C14.1441 7.52941 14.1443 8.47059 13.5216 8.47059ZM13.5216 4.45491H6.38588C5.93519 5.78897 4.04194 5.791 3.59059 4.45491H2.47844C1.85587 4.45491 1.85572 3.51372 2.47844 3.51372H3.59059C4.04125 2.17966 5.93453 2.17763 6.38588 3.51372H13.5216C14.1441 3.51372 14.1443 4.45491 13.5216 4.45491Z" fill="white"/>
<path d="M6.99609 11.4823C6.29044 11.4823 6.29081 12.549 6.99609 12.549C7.70172 12.549 7.70134 11.4823 6.99609 11.4823Z" fill="white"/>
<path d="M4.98825 3.45097C4.28259 3.45097 4.28297 4.51762 4.98825 4.51762C5.69387 4.51766 5.6935 3.45097 4.98825 3.45097Z" fill="white"/>
<path d="M11.0118 7.46666C10.3061 7.46666 10.3065 8.53331 11.0118 8.53331C11.7174 8.53334 11.717 7.46666 11.0118 7.46666Z" fill="white"/>
</svg>
