<svg width="19" height="16" viewBox="0 0 19 16" fill="none" xmlns="http://www.w3.org/2000/svg">
<path d="M16.2479 8.63809H14.7793C14.929 9.04517 15.0108 9.48448 15.0108 9.94236V15.4554C15.0108 15.6463 14.9774 15.8295 14.9165 15.9999H17.3443C18.2512 15.9999 18.989 15.267 18.989 14.3662V11.3609C18.989 9.85954 17.7594 8.63809 16.2479 8.63809Z" fill="#DEE2E6"/>
<path d="M3.97824 9.94239C3.97824 9.48448 4.06002 9.04521 4.20971 8.63813H2.74117C1.22969 8.63813 0 9.85958 0 11.3609V14.3663C0 15.2671 0.737791 16 1.6447 16H4.07256C4.0117 15.8295 3.97824 15.6463 3.97824 15.4554V9.94239Z" fill="#DEE2E6"/>
<path d="M11.1732 7.21959H7.81589C6.3044 7.21959 5.07471 8.44104 5.07471 9.94239V15.4554C5.07471 15.7561 5.32016 16 5.62295 16H13.3661C13.6689 16 13.9143 15.7562 13.9143 15.4554V9.94239C13.9143 8.44104 12.6846 7.21959 11.1732 7.21959Z" fill="#DEE2E6"/>
<path d="M9.49452 0C7.67677 0 6.19792 1.46893 6.19792 3.27454C6.19792 4.49927 6.87845 5.5689 7.88346 6.13048C8.36015 6.39682 8.90972 6.54905 9.49452 6.54905C10.0793 6.54905 10.6289 6.39682 11.1056 6.13048C12.1106 5.5689 12.7911 4.49923 12.7911 3.27454C12.7911 1.46897 11.3123 0 9.49452 0Z" fill="#DEE2E6"/>
<path d="M3.70576 3.0521C2.3463 3.0521 1.24033 4.15065 1.24033 5.501C1.24033 6.85135 2.3463 7.9499 3.70576 7.9499C4.0506 7.9499 4.37898 7.87895 4.67728 7.75141C5.19302 7.53085 5.61827 7.14043 5.88141 6.65138C6.06611 6.30815 6.17118 5.91659 6.17118 5.501C6.17118 4.15069 5.06522 3.0521 3.70576 3.0521Z" fill="#DEE2E6"/>
<path d="M15.2833 3.0521C13.9238 3.0521 12.8179 4.15065 12.8179 5.501C12.8179 5.91662 12.9229 6.30819 13.1076 6.65138C13.3708 7.14046 13.796 7.53089 14.3118 7.75141C14.6101 7.87895 14.9384 7.9499 15.2833 7.9499C16.6428 7.9499 17.7487 6.85135 17.7487 5.501C17.7487 4.15065 16.6428 3.0521 15.2833 3.0521Z" fill="#DEE2E6"/>
</svg>
