<svg width="16" height="16" viewBox="0 0 16 16" fill="none" xmlns="http://www.w3.org/2000/svg">
<path d="M12.8557 0H3.14435C2.31064 0.000736816 1.51129 0.332252 0.921772 0.921772C0.332252 1.51129 0.000736816 2.31064 0 3.14435V12.8557C0.000736816 13.6894 0.332252 14.4887 0.921772 15.0782C1.51129 15.6677 2.31064 15.9993 3.14435 16H12.8557C13.6894 15.9993 14.4887 15.6677 15.0782 15.0782C15.6677 14.4887 15.9993 13.6894 16 12.8557V3.14435C15.9993 2.31064 15.6677 1.51129 15.0782 0.921772C14.4887 0.332252 13.6894 0.000736816 12.8557 0ZM8.15583 13.0087C8.13625 13.0307 8.11224 13.0483 8.08539 13.0603C8.05853 13.0723 8.02943 13.0786 8 13.0786C7.97057 13.0786 7.94147 13.0723 7.91461 13.0603C7.88776 13.0483 7.86375 13.0307 7.84417 13.0087C7.69948 12.8473 4.2713 9.00174 4.2713 6.88696C4.2713 4.70817 5.94087 2.93287 8 2.93287C10.0591 2.93287 11.7287 4.69704 11.7287 6.88696C11.7287 9.00174 8.30052 12.8473 8.15583 13.0087Z" fill="#DEE2E6"/>
<path d="M8 8.11687C8.87443 8.11687 9.5833 7.408 9.5833 6.53356C9.5833 5.65913 8.87443 4.95026 8 4.95026C7.12557 4.95026 6.4167 5.65913 6.4167 6.53356C6.4167 7.408 7.12557 8.11687 8 8.11687Z" fill="#DEE2E6"/>
</svg>
