<svg width="17" height="16" viewBox="0 0 17 16" fill="none" xmlns="http://www.w3.org/2000/svg">
<path d="M8.75157 1.13643L1.37016 0.0147776C1.02762 -0.0389543 0.678364 0.0550764 0.416422 0.27672C0.154479 0.505081 0 0.834188 0 1.17673V15.3284C0 15.6978 0.302242 16 0.671648 16H2.8545V12.4738C2.8545 11.8223 3.37839 11.2985 4.02989 11.2985H5.70901C6.36051 11.2985 6.88439 11.8223 6.88439 12.4738V16H9.7389V2.29838C9.7389 1.72076 9.32247 1.23046 8.75157 1.13643ZM3.69406 9.78726H2.68659C2.40853 9.78726 2.18286 9.56158 2.18286 9.28352C2.18286 9.00546 2.40853 8.77978 2.68659 8.77978H3.69406C3.97213 8.77978 4.1978 9.00546 4.1978 9.28352C4.1978 9.56158 3.97213 9.78726 3.69406 9.78726ZM3.69406 7.77231H2.68659C2.40853 7.77231 2.18286 7.54664 2.18286 7.26858C2.18286 6.99051 2.40853 6.76484 2.68659 6.76484H3.69406C3.97213 6.76484 4.1978 6.99051 4.1978 7.26858C4.1978 7.54664 3.97213 7.77231 3.69406 7.77231ZM3.69406 5.75737H2.68659C2.40853 5.75737 2.18286 5.53169 2.18286 5.25363C2.18286 4.97557 2.40853 4.7499 2.68659 4.7499H3.69406C3.97213 4.7499 4.1978 4.97557 4.1978 5.25363C4.1978 5.53169 3.97213 5.75737 3.69406 5.75737ZM3.69406 3.74242H2.68659C2.40853 3.74242 2.18286 3.51675 2.18286 3.23869C2.18286 2.96063 2.40853 2.73495 2.68659 2.73495H3.69406C3.97213 2.73495 4.1978 2.96063 4.1978 3.23869C4.1978 3.51675 3.97213 3.74242 3.69406 3.74242ZM7.0523 9.78726H6.04483C5.76677 9.78726 5.5411 9.56158 5.5411 9.28352C5.5411 9.00546 5.76677 8.77978 6.04483 8.77978H7.0523C7.33037 8.77978 7.55604 9.00546 7.55604 9.28352C7.55604 9.56158 7.33037 9.78726 7.0523 9.78726ZM7.0523 7.77231H6.04483C5.76677 7.77231 5.5411 7.54664 5.5411 7.26858C5.5411 6.99051 5.76677 6.76484 6.04483 6.76484H7.0523C7.33037 6.76484 7.55604 6.99051 7.55604 7.26858C7.55604 7.54664 7.33037 7.77231 7.0523 7.77231ZM7.0523 5.75737H6.04483C5.76677 5.75737 5.5411 5.53169 5.5411 5.25363C5.5411 4.97557 5.76677 4.7499 6.04483 4.7499H7.0523C7.33037 4.7499 7.55604 4.97557 7.55604 5.25363C7.55604 5.53169 7.33037 5.75737 7.0523 5.75737ZM7.0523 3.74242H6.04483C5.76677 3.74242 5.5411 3.51675 5.5411 3.23869C5.5411 2.96063 5.76677 2.73495 6.04483 2.73495H7.0523C7.33037 2.73495 7.55604 2.96063 7.55604 3.23869C7.55604 3.51675 7.33037 3.74242 7.0523 3.74242Z" fill="#DEE2E6"/>
<path d="M15.1927 7.16246L10.4105 6.16103V16H14.9442C15.5923 16 16.1196 15.4728 16.1196 14.8246V8.31097C16.1196 7.75619 15.7414 7.28402 15.1927 7.16246ZM13.6009 13.9851H12.5934C12.3153 13.9851 12.0897 13.7594 12.0897 13.4813C12.0897 13.2033 12.3153 12.9776 12.5934 12.9776H13.6009C13.8789 12.9776 14.1046 13.2033 14.1046 13.4813C14.1046 13.7594 13.8789 13.9851 13.6009 13.9851ZM13.6009 11.9701H12.5934C12.3153 11.9701 12.0897 11.7444 12.0897 11.4664C12.0897 11.1883 12.3153 10.9626 12.5934 10.9626H13.6009C13.8789 10.9626 14.1046 11.1883 14.1046 11.4664C14.1046 11.7444 13.8789 11.9701 13.6009 11.9701ZM13.6009 9.95517H12.5934C12.3153 9.95517 12.0897 9.72949 12.0897 9.45143C12.0897 9.17337 12.3153 8.94769 12.5934 8.94769H13.6009C13.8789 8.94769 14.1046 9.17337 14.1046 9.45143C14.1046 9.72949 13.8789 9.95517 13.6009 9.95517Z" fill="#DEE2E6"/>
</svg>
