<svg width="20" height="17" viewBox="0 0 20 17" fill="none" xmlns="http://www.w3.org/2000/svg">
<path d="M1 6.14284C1 4.72268 2.15127 3.57141 3.57143 3.57141H16.4286C17.8487 3.57141 19 4.72268 19 6.14284V11.5714C19 12.9916 17.8487 14.1428 16.4286 14.1428H3.57143C2.15127 14.1428 1 12.9916 1 11.5714V6.14284Z" stroke="#3B4453" stroke-width="2"/>
<circle cx="10" cy="6" r="5" fill="white" stroke="#3B4453" stroke-width="2"/>
<path d="M8 6C8 7.10457 8.89543 8 10 8" stroke="#3B4453" stroke-width="2" stroke-linecap="round"/>
<path d="M2.71436 14.1429H5.71436V15.3572C5.71436 16.1856 5.04278 16.8572 4.21436 16.8572C3.38593 16.8572 2.71436 16.1856 2.71436 15.3572V14.1429Z" fill="#3B4453"/>
<path d="M13.7144 14.1429H16.7144V15.3572C16.7144 16.1856 16.0428 16.8572 15.2144 16.8572C14.3859 16.8572 13.7144 16.1856 13.7144 15.3572V14.1429Z" fill="#3B4453"/>
</svg>
