<svg width="20" height="21" viewBox="0 0 20 21" fill="none" xmlns="http://www.w3.org/2000/svg">
<path d="M16.3913 3H16.6522C17.9488 3 19 4.05116 19 5.34783V8.17566C19 9.54923 17.826 10.6294 16.4572 10.5154L9.5428 9.93917C8.17397 9.8251 7 10.9053 7 12.2789V13" stroke="#3B4453" stroke-width="2" stroke-linecap="round"/>
<path d="M1 3.34783C1 2.05116 2.05116 1 3.34783 1H13.6522C14.9488 1 16 2.05116 16 3.34783V4.13043C16 5.4271 14.9488 6.47826 13.6522 6.47826H3.34783C2.05116 6.47826 1 5.4271 1 4.13043V3.34783Z" fill="white" stroke="#3B4453" stroke-width="2"/>
<path d="M5 13.6364C5 13.2849 5.28491 13 5.63636 13H8.36364C8.71509 13 9 13.2849 9 13.6364V18C9 19.1046 8.10457 20 7 20C5.89543 20 5 19.1046 5 18V13.6364Z" fill="white" stroke="#3B4453" stroke-width="2"/>
</svg>
