<svg xmlns="http://www.w3.org/2000/svg" width="21" height="21" viewBox="0 0 21 21" fill="none">
  <circle cx="11" cy="10" r="9" stroke="#3B4453" stroke-width="2"/>
  <path d="M10 12.0356V14H9H8V5.03134C8.43688 5.03134 8.90851 5.02612 9.41489 5.01567C9.93121 5.00522 10.4475 5 10.9638 5C11.6986 5 12.334 5.09924 12.8702 5.29772C13.4163 5.48575 13.8383 5.75214 14.1362 6.09687C14.434 6.43115 14.6525 6.80199 14.7915 7.2094C14.9305 7.60636 15 8.04511 15 8.52564C15 9.51804 14.6624 10.359 13.9872 11.0484C13.322 11.7379 12.3887 12.0826 11.1872 12.0826C10.5816 12.0826 10.2979 12.067 10 12.0356ZM11.1426 6.80199L9.83191 6.83333V10.2023C10.3582 10.2545 10.7901 10.2806 11.1277 10.2806C11.7135 10.2806 12.1801 10.1292 12.5277 9.82621C12.8851 9.52327 13.0638 9.08452 13.0638 8.50997C13.0638 7.37132 12.4234 6.80199 11.1426 6.80199Z" fill="#3B4453"/>
  <path d="M9 6.5V15" stroke="#3B4453" stroke-width="2" stroke-linecap="round"/>
</svg>