<svg xmlns="http://www.w3.org/2000/svg" width="21" height="21" viewBox="0 0 21 21" fill="none">
  <path d="M10.1547 3.20958C10.5471 2.58853 11.4529 2.58854 11.8453 3.20958L13.109 5.20925C13.5188 5.85762 14.1613 6.32443 14.9045 6.51376L17.1968 7.09767C17.9088 7.27902 18.1887 8.14045 17.7193 8.70562L16.208 10.5254C15.718 11.1154 15.4726 11.8708 15.5222 12.6361L15.6752 14.9967C15.7227 15.7298 14.99 16.2622 14.3074 15.9904L12.1097 15.1155C11.3971 14.8318 10.6029 14.8318 9.89032 15.1155L7.69259 15.9904C7.01004 16.2622 6.27726 15.7298 6.32479 14.9967L6.47782 12.6361C6.52744 11.8708 6.28202 11.1154 5.79199 10.5254L4.2807 8.70562C3.81133 8.14044 4.09123 7.27902 4.80315 7.09767L7.09545 6.51376C7.83871 6.32443 8.48122 5.85762 8.89096 5.20925L10.1547 3.20958Z" stroke="#3B4453" stroke-width="2"/>
</svg>