<svg width="18" height="18" viewBox="0 0 18 18" fill="none" xmlns="http://www.w3.org/2000/svg">
<path d="M4.25 16H11.75C12.2147 16 12.447 16 12.6402 15.9615C13.4336 15.8037 14.0536 15.1836 14.2114 14.3902C14.2499 14.197 14.2499 13.9647 14.2499 13.5C14.2499 13.0353 14.2499 12.8031 14.2114 12.6099C14.0536 11.8165 13.4336 11.1962 12.6402 11.0384C12.447 11 12.2147 11 11.75 11H4.25C3.78534 11 3.55306 11 3.35986 11.0384C2.56648 11.1962 1.94624 11.8165 1.78843 12.6099C1.75 12.8031 1.75 13.0354 1.75 13.5C1.75 13.9647 1.75 14.197 1.78843 14.3902C1.94624 15.1836 2.56648 15.8037 3.35986 15.9615C3.55306 16 3.78535 16 4.25 16Z" stroke="#3B4453" stroke-width="2" stroke-linecap="round" stroke-linejoin="round"/>
<path d="M4.25 7H13.75C14.2147 7 14.447 6.99998 14.6402 6.96155C15.4336 6.80373 16.0536 6.18356 16.2114 5.39018C16.2499 5.19698 16.2499 4.96465 16.2499 4.5C16.2499 4.03535 16.2499 3.80306 16.2114 3.60986C16.0536 2.81648 15.4336 2.19624 14.6402 2.03843C14.447 2 14.2147 2 13.75 2H4.25C3.78534 2 3.55306 2 3.35986 2.03843C2.56648 2.19624 1.94624 2.81648 1.78843 3.60986C1.75 3.80306 1.75 4.03539 1.75 4.50004C1.75 4.9647 1.75 5.19698 1.78843 5.39018C1.94624 6.18356 2.56648 6.80373 3.35986 6.96155C3.55306 6.99998 3.78535 7 4.25 7Z" stroke="#3B4453" stroke-width="2" stroke-linecap="round" stroke-linejoin="round"/>
</svg>
