<svg width="36" height="40" viewBox="0 0 36 40" fill="none" xmlns="http://www.w3.org/2000/svg">
<path d="M15.307 20.164L2.65695 13.2225C2.09426 12.9139 1.42979 12.9266 0.879174 13.2571C0.328558 13.5875 0 14.1709 0 14.8177V30.9203C0 31.5718 0.34845 32.1766 0.909437 32.4987L13.5597 39.76C13.8386 39.9201 14.1436 40 14.4486 40C14.7594 40 15.0702 39.9169 15.3528 39.7509C15.9124 39.4221 16.2466 38.8354 16.2466 38.1816V21.7592C16.2466 21.0933 15.8867 20.482 15.307 20.164Z" fill="white"/>
<path d="M33.0534 9.03398C33.0526 8.35409 32.6806 7.73742 32.0828 7.42459L18.2883 0.203751C17.7661 -0.0697682 17.1435 -0.0677363 16.6232 0.208831L3.03156 7.42967C2.43977 7.74422 2.07166 8.35901 2.07081 9.03429C2.07003 9.70942 2.43667 10.3251 3.02761 10.6409L16.6193 17.9069C16.8825 18.0475 17.1714 18.1178 17.4605 18.1178C17.746 18.1178 18.0316 18.0492 18.2921 17.9119L32.0869 10.6461C32.684 10.3316 33.0543 9.71387 33.0534 9.03398Z" fill="white"/>
<path d="M34.4697 13.2571C33.9194 12.9266 33.2546 12.9136 32.6921 13.2224L20.0417 20.164C19.4622 20.482 19.1023 21.0932 19.1023 21.7591V38.1815C19.1023 38.8354 19.4364 39.422 19.9961 39.7508C20.2787 39.9168 20.5893 39.9998 20.9002 39.9998C21.2052 39.9998 21.5103 39.9199 21.7891 39.7599L34.4395 32.4986C35.0005 32.1766 35.3488 31.5718 35.3488 30.9202V14.8177C35.3488 14.1709 35.0203 13.5875 34.4697 13.2571Z" fill="white"/>
</svg>
