<svg width="42" height="33" viewBox="0 0 42 33" fill="none" xmlns="http://www.w3.org/2000/svg">
<path d="M14.3748 29.1065C14.0361 29.1065 13.7616 29.381 13.7616 29.7196V32.3408C13.7616 32.6794 14.0361 32.9539 14.3748 32.9539C14.7134 32.9539 14.9879 32.6794 14.9879 32.3408V29.7196C14.9879 29.381 14.7134 29.1065 14.3748 29.1065Z" fill="#7C68CB"/>
<path d="M27.481 29.1065C27.1424 29.1065 26.8679 29.381 26.8679 29.7196V32.3408C26.8679 32.6794 27.1424 32.9539 27.481 32.9539C27.8196 32.9539 28.0941 32.6794 28.0941 32.3408V29.7196C28.0941 29.381 27.8196 29.1065 27.481 29.1065Z" fill="#7C68CB"/>
<path d="M9.40634 16.065C7.98259 15.3531 5.31323 15.3449 5.20025 15.3449C4.86172 15.3449 4.58729 15.6193 4.58721 15.9579C4.58713 16.2964 4.86148 16.571 5.20009 16.5712C5.88989 16.5716 7.89152 16.6785 8.85797 17.1617C8.94601 17.2058 9.03953 17.2265 9.13166 17.2265C9.35656 17.2265 9.57311 17.1023 9.68053 16.8875C9.83201 16.5846 9.70922 16.2164 9.40634 16.065Z" fill="#7C68CB"/>
<path d="M3.23434 27.7959C2.89573 27.7959 2.62122 28.0704 2.62122 28.409V32.3409C2.62122 32.6795 2.89573 32.954 3.23434 32.954C3.57294 32.954 3.84746 32.6795 3.84746 32.3409V28.409C3.84746 28.0704 3.57303 27.7959 3.23434 27.7959Z" fill="#7C68CB"/>
<path d="M40.43 25.506L37.9471 24.2648C37.9327 24.2576 37.9238 24.243 37.9238 24.227L37.9239 22.9791C38.9432 22.2773 39.6646 21.1678 39.8451 19.8657C40.3036 19.0734 40.5451 18.1786 40.5451 17.2687C40.5451 15.572 39.7281 14.0628 38.4671 13.113C38.541 12.8668 38.5792 12.6129 38.5792 12.3539C38.5792 10.7511 37.1283 9.44709 35.3449 9.44709C33.5615 9.44709 32.1105 10.7511 32.1105 12.3539C32.1105 12.6133 32.1483 12.8672 32.2222 13.1132C31.4704 13.6796 30.8775 14.4454 30.5206 15.3308C30.3686 13.8373 30.2104 12.0717 30.0586 10.0151C29.8583 7.3015 28.8823 5.00989 27.2364 3.38815C25.603 1.77866 23.4215 0.927979 20.9279 0.927979C18.4343 0.927979 16.2528 1.77866 14.6195 3.38807C12.9736 5.00989 11.9976 7.3015 11.7974 10.015C11.7441 10.7355 11.6902 11.4183 11.636 12.0683H5.85563C3.71085 12.0683 1.96591 13.8133 1.96591 15.958V15.9946C1.96591 16.4941 2.08396 16.9943 2.30738 17.441L2.62122 18.0688V19.0698C2.62122 20.6563 3.40299 22.0798 4.58713 22.9364V23.8219C4.58713 23.9355 4.51086 24.0365 4.40172 24.0677L1.87051 24.791C0.769181 25.1056 0 26.1253 0 27.2707V32.3409C0 32.6795 0.274515 32.954 0.613121 32.954C0.951728 32.954 1.22624 32.6795 1.22624 32.3409V27.2707C1.22624 26.6698 1.62976 26.1349 2.2074 25.9699L4.73869 25.2467C4.83001 25.2206 4.91674 25.1852 4.99931 25.1432L6.55312 26.697V32.3409C6.55312 32.6795 6.82764 32.954 7.16624 32.954C7.50485 32.954 7.77936 32.6795 7.77936 32.3409V26.697L9.34405 25.1323C9.55316 25.2349 9.76154 25.2946 9.91425 25.3382L10.5358 25.5158C9.69353 26.1147 9.17442 27.0915 9.17442 28.1507V32.3407C9.17442 32.6793 9.44893 32.9538 9.78754 32.9538C10.1261 32.9538 10.4007 32.6793 10.4007 32.3407V28.1507C10.4007 27.356 10.8705 26.6349 11.5976 26.3138L15.103 24.7656C16.2014 26.9654 18.4461 28.3667 20.928 28.3667C23.419 28.3667 25.6562 26.9685 26.754 24.7661L30.2584 26.3138C30.9854 26.6349 31.4552 27.356 31.4552 28.1507V32.3407C31.4552 32.6793 31.7298 32.9538 32.0684 32.9538C32.407 32.9538 32.6815 32.6793 32.6815 32.3407V28.1507C32.6815 27.3664 32.3964 26.6276 31.9072 26.0532L32.856 25.5788L33.5683 26.2557C34.0665 26.7292 34.7056 26.9658 35.345 26.9658C35.9841 26.9658 36.6235 26.729 37.1215 26.2557L37.8337 25.5789L39.8817 26.6028C40.3431 26.8334 40.6296 27.2971 40.6296 27.8129V32.3408C40.6296 32.6794 40.9041 32.9539 41.2427 32.9539C41.5813 32.9539 41.8558 32.6794 41.8558 32.3408V27.8129C41.8557 26.8297 41.3094 25.9458 40.43 25.506ZM35.3448 10.6733C36.452 10.6733 37.3529 11.4271 37.3529 12.3538C37.3529 12.3926 37.3498 12.4311 37.3467 12.4695C36.7301 12.2114 36.0539 12.0683 35.3448 12.0683C34.6358 12.0683 33.9596 12.2114 33.3433 12.4695C33.3401 12.431 33.3367 12.3926 33.3367 12.3538C33.3367 11.4271 34.2376 10.6733 35.3448 10.6733ZM7.16632 25.576L5.76923 24.1789C5.79808 24.0638 5.81353 23.9441 5.81353 23.8218V23.5632C6.19923 23.6898 6.60601 23.7649 7.02694 23.7775C7.07411 23.779 7.12104 23.7797 7.16804 23.7797C7.63303 23.7797 8.08699 23.7094 8.51895 23.5755V23.8216C8.51895 23.9546 8.5326 24.0753 8.55688 24.1855L7.16632 25.576ZM7.06373 22.5517C5.29026 22.4986 3.84746 20.9366 3.84746 19.0698V17.924C3.84746 17.8289 3.8253 17.7349 3.78271 17.6498L3.40413 16.8927C3.26548 16.6152 3.19215 16.3047 3.19215 15.9946V15.958C3.19215 14.4894 4.387 13.2946 5.85563 13.2946H11.1404V15.8398C11.1404 16.2511 11.0432 16.663 10.8592 17.0309L10.5498 17.6498C10.5072 17.7349 10.485 17.8288 10.485 17.9239V19.2346C10.485 20.1398 10.1271 20.9858 9.47722 21.6164C8.82764 22.2467 7.97 22.5792 7.06373 22.5517ZM12.188 24.7125L10.2511 24.1591C9.74511 24.0146 9.74519 23.9582 9.74519 23.8218L9.74536 22.977C9.95128 22.8344 10.1476 22.6747 10.3313 22.4964C10.4549 22.3765 10.57 22.2503 10.678 22.1195C10.7765 22.3193 10.9275 22.4938 11.1226 22.6201C11.6141 22.9384 12.5415 23.4671 13.9054 23.954L12.188 24.7125ZM20.9279 27.1405C18.933 27.1405 17.1264 26.0255 16.2254 24.2699L17.1179 23.8757C17.8144 23.5681 18.2644 22.8774 18.2644 22.116V20.6448C19.0882 20.9758 19.9871 21.1584 20.9279 21.1584C21.8686 21.1584 22.7675 20.9758 23.5914 20.6448V22.116C23.5914 22.8774 24.0414 23.5682 24.7379 23.8757L25.6302 24.2698C24.7299 26.0274 22.9302 27.1405 20.9279 27.1405ZM26.2444 23.2005L25.2333 22.754C24.9808 22.6424 24.8176 22.392 24.8176 22.1159V20.008C26.7879 18.7297 28.0942 16.5106 28.0942 13.992V12.8424C28.0942 12.0952 27.7765 11.3904 27.2226 10.9087C25.9907 9.83728 23.2021 7.96759 18.3676 7.48412C18.0316 7.45044 17.7302 7.69618 17.6966 8.03324C17.6629 8.37021 17.9087 8.67064 18.2457 8.70432C22.7423 9.15394 25.2959 10.8582 26.4179 11.834C26.704 12.0827 26.868 12.4503 26.868 12.8424V13.992C26.868 17.2673 24.2032 19.932 20.928 19.932C17.6527 19.932 14.988 17.2673 14.988 13.992V13.4791C14.988 13.2435 15.1186 13.0277 15.3373 12.9017C16.1039 12.4604 17.1148 11.6427 17.5778 10.254C17.6849 9.93285 17.5112 9.58558 17.19 9.47849C16.8688 9.37139 16.5215 9.54503 16.4144 9.86631C16.0733 10.8895 15.3077 11.5038 14.7255 11.8391C14.131 12.1814 13.7616 12.8099 13.7616 13.4792V13.9921C13.7616 16.5107 15.0678 18.7297 17.0382 20.0081V22.116C17.0382 22.392 16.8751 22.6424 16.6225 22.754L15.6114 23.2006C13.6366 22.6723 12.3713 21.9678 11.789 21.5909C11.7774 21.5834 11.7709 21.5748 11.7741 21.5554C11.988 20.2912 12.5375 16.6448 13.0203 10.1053C13.1984 7.6925 14.049 5.67166 15.4802 4.26148C16.8793 2.88294 18.7631 2.15422 20.9279 2.15422C23.0927 2.15422 24.9764 2.88294 26.3756 4.26148C27.8068 5.67166 28.6574 7.69242 28.8355 10.1053C29.3182 16.6445 29.8678 20.2911 30.0817 21.5553C30.085 21.5748 30.0784 21.5834 30.0667 21.5909C29.4836 21.9683 28.2183 22.6724 26.2444 23.2005ZM32.7658 24.2269C32.7658 24.243 32.7569 24.2575 32.7425 24.2647L30.8215 25.2252C30.7987 25.2144 30.7768 25.2024 30.7538 25.1922L27.9505 23.9541C29.3137 23.4674 30.241 22.9389 30.7332 22.6203C31.156 22.3465 31.3749 21.8483 31.2908 21.3509C31.2862 21.3237 31.2812 21.2938 31.2763 21.2644C31.6211 21.9578 32.1367 22.546 32.7658 22.9791V24.2269ZM36.2766 25.3669C35.7541 25.8636 34.9355 25.8635 34.4129 25.3669L33.843 24.8254C33.9391 24.6452 33.9919 24.4409 33.9919 24.2269V23.5745C34.4201 23.7073 34.8743 23.7796 35.3447 23.7796C35.815 23.7796 36.2693 23.7073 36.6974 23.5745L36.6973 24.2267C36.6973 24.4408 36.7502 24.6452 36.8464 24.8255L36.2766 25.3669ZM35.3448 22.5533C33.6472 22.5533 32.2293 21.282 32.0468 19.5963C32.037 19.506 32.0073 19.419 31.9597 19.3415C31.5744 18.7139 31.3707 17.9971 31.3707 17.2686C31.3707 15.0773 33.1534 13.2946 35.3448 13.2946C37.5361 13.2946 39.3189 15.0773 39.3189 17.2686C39.3189 17.691 39.25 18.1094 39.1173 18.5089C37.3764 16.7402 34.3138 16.0471 34.1661 16.0145C33.9848 15.9745 33.795 16.019 33.6501 16.1353C33.5054 16.2518 33.4211 16.4275 33.4211 16.6133C33.4211 16.6173 33.3931 17.0426 32.9454 17.4903C32.7059 17.7298 32.7059 18.118 32.9454 18.3574C33.1848 18.5968 33.573 18.5968 33.8124 18.3574C34.1572 18.0126 34.3598 17.6626 34.4787 17.3671C35.5103 17.6735 37.6516 18.4475 38.6126 19.8061C38.3399 21.3863 36.971 22.5533 35.3448 22.5533Z" fill="#7C68CB"/>
<path d="M38.6214 28.606C38.2828 28.606 38.0083 28.8805 38.0083 29.2191V32.3409C38.0083 32.6795 38.2828 32.954 38.6214 32.954C38.96 32.954 39.2345 32.6795 39.2345 32.3409V29.2191C39.2345 28.8805 38.96 28.606 38.6214 28.606Z" fill="#7C68CB"/>
</svg>
