<svg width="36" height="34" viewBox="0 0 36 34" fill="none" xmlns="http://www.w3.org/2000/svg">
<path d="M34.6856 3.20891H8.49648V1.63664C8.49648 1.44861 8.42047 1.26908 8.28307 1.1368C8.14567 1.00451 7.95954 0.927979 7.76562 0.927979C7.68766 0.927979 0 1.01491 0 8.37267V32.8025C0 33.1936 0.325476 33.5111 0.730859 33.5111H34.6856C35.089 33.5111 35.4165 33.1936 35.4165 32.8025V3.91757C35.4165 3.52639 35.089 3.20891 34.6856 3.20891ZM1.46172 8.37267C1.46172 3.60576 5.36938 2.60892 7.03476 2.40104V25.4116C5.76307 25.5609 3.12126 26.1184 1.46172 28.1877V8.37267ZM33.9547 32.0938H26.0712V30.0529H24.6095V32.0938H1.50752C1.97722 26.8771 7.522 26.7751 7.76562 26.7751C8.17101 26.7751 8.49648 26.4576 8.49648 26.0664V15.8466H9.9582V14.4293H8.49648V4.62623H24.6095V6.66716H26.0712V4.62623H33.9547V32.0938Z" fill="#7C68CB"/>
<path d="M16.5359 14.4293H18.7285V15.8466H16.5359V14.4293Z" fill="#7C68CB"/>
<path d="M12.1508 14.4293H14.3434V15.8466H12.1508V14.4293Z" fill="#7C68CB"/>
<path d="M20.9211 14.4293H23.1137V15.8466H20.9211V14.4293Z" fill="#7C68CB"/>
<path d="M24.6095 17.297H26.0712V19.423H24.6095V17.297Z" fill="#7C68CB"/>
<path d="M24.6095 8.79314H26.0712V10.9191H24.6095V8.79314Z" fill="#7C68CB"/>
<path d="M24.6095 13.0451H26.0712V15.1711H24.6095V13.0451Z" fill="#7C68CB"/>
<path d="M24.6095 21.549H26.0712V23.675H24.6095V21.549Z" fill="#7C68CB"/>
<path d="M24.6095 25.8009H26.0712V27.9269H24.6095V25.8009Z" fill="#7C68CB"/>
<path d="M31.1093 23.6419H33.3018V25.0592H31.1093V23.6419Z" fill="#7C68CB"/>
<path d="M26.7241 23.6419H28.9167V25.0592H26.7241V23.6419Z" fill="#7C68CB"/>
<path d="M18.2013 20.8677C17.9294 20.7591 17.6127 20.8195 17.4042 21.0227L14.2147 24.1153L11.0233 21.0227C10.8138 20.8195 10.502 20.7591 10.2281 20.8677C9.9543 20.9783 9.77695 21.2372 9.77695 21.5225V28.491C9.77695 28.8831 10.1024 29.1997 10.5078 29.1997C10.9112 29.1997 11.2387 28.8831 11.2387 28.491V23.2337L13.6992 25.6195C13.9731 25.885 14.4583 25.8831 14.7331 25.6195L17.1918 23.2337V28.491C17.1918 28.8831 17.5192 29.1997 17.9226 29.1997C18.326 29.1997 18.6535 28.8831 18.6535 28.491V21.5225C18.6525 21.2372 18.4732 20.9792 18.2013 20.8677Z" fill="#7C68CB"/>
<path d="M22.6001 21.4054H22.3867C22.8798 20.8091 22.9714 20.2611 22.9597 19.903C22.9402 19.2539 22.5504 18.6832 21.9677 18.4479C20.7934 17.9726 19.6796 18.9468 19.5558 19.0583C19.2606 19.3266 19.2479 19.7754 19.5237 20.0599C19.8014 20.3471 20.2643 20.3584 20.5576 20.091C20.7096 19.9531 21.1647 19.6592 21.4064 19.7565C21.4385 19.7707 21.496 19.8246 21.4999 19.9455C21.5097 20.2923 21.0906 20.9017 19.8745 21.4772C19.5685 21.6208 19.4067 21.9515 19.4828 22.2737C19.5588 22.5959 19.854 22.8227 20.1941 22.8227H22.6001C23.0055 22.8227 23.331 22.5052 23.331 22.114C23.331 21.7228 23.0055 21.4054 22.6001 21.4054Z" fill="#7C68CB"/>
</svg>
