<svg width="33" height="38" viewBox="0 0 33 38" fill="none" xmlns="http://www.w3.org/2000/svg">
<path d="M29.9444 15.6553C29.7818 15.3942 29.44 15.3154 29.181 15.4796C28.9221 15.6438 28.8441 15.9885 29.0068 16.2498C29.7932 17.5121 30.3593 18.8907 30.6932 20.3296C29.775 20.1341 28.765 19.9614 27.682 19.8135C27.6376 19.3956 27.5859 18.9806 27.5259 18.5696C27.4814 18.2644 27.1999 18.0533 26.8976 18.0982C26.595 18.1431 26.3858 18.4269 26.4302 18.732C26.4755 19.0427 26.515 19.3562 26.5511 19.6711C25.0573 19.4981 23.4488 19.3696 21.7711 19.2898C21.6919 17.597 21.5645 15.9738 21.3929 14.4666C21.3953 14.4669 21.3978 14.4671 21.4001 14.4674C21.7038 14.5031 21.9787 14.2833 22.0139 13.9769C22.0491 13.6705 21.8314 13.3933 21.5276 13.3578C21.4359 13.3471 21.3438 13.3376 21.2518 13.3276C21.105 12.2344 20.9337 11.214 20.7396 10.2873C21.3827 10.4391 22.0149 10.6387 22.6328 10.8873C22.7001 10.9144 22.7695 10.9272 22.8377 10.9272C23.0577 10.9272 23.2658 10.794 23.3522 10.5754C23.4655 10.2888 23.3271 9.96396 23.043 9.84964C22.0562 9.45278 21.0368 9.17002 19.9946 9.00149V7.45046C19.9946 6.62241 19.3267 5.94866 18.5057 5.94866H18.2416V0.558539C18.2416 0.250076 17.9936 0 17.6878 0C17.382 0 17.1341 0.250076 17.1341 0.558539V5.94874H16.8699C16.049 5.94874 15.381 6.62241 15.381 7.45053V9.00216C14.656 9.1196 13.9408 9.2923 13.2405 9.52033C12.9495 9.61506 12.7897 9.92985 12.8837 10.2234C12.9776 10.5169 13.2896 10.6783 13.5807 10.5833C13.9285 10.4701 14.2804 10.3719 14.6355 10.2881C14.4411 11.2157 14.2693 12.235 14.1223 13.3286C12.7114 13.4818 11.3413 13.7255 10.0387 14.0537C10.3044 13.256 10.6053 12.4954 10.9397 11.7797C11.1212 11.6721 11.3046 11.5676 11.4912 11.4687C11.762 11.3255 11.8664 10.9878 11.7243 10.7146C11.5822 10.4415 11.2476 10.3362 10.9767 10.4795C8.85528 11.6021 7.02507 13.2564 5.68385 15.2634C4.31213 17.3161 3.4785 19.7049 3.2731 22.1713C3.24748 22.4787 3.47377 22.7488 3.77855 22.7747C3.79435 22.776 3.81 22.7767 3.82551 22.7767C4.11035 22.7767 4.35244 22.5564 4.37666 22.2648C4.39741 22.0161 4.42627 21.7685 4.46075 21.5218C5.40041 21.3059 6.45309 21.1163 7.59232 20.9547C7.53406 21.7636 7.50446 22.5831 7.50446 23.4082C7.50446 24.2335 7.53436 25.0529 7.59261 25.862C6.45295 25.7004 5.40048 25.5105 4.46053 25.2947C4.42635 25.0484 4.39792 24.8008 4.37718 24.5516C4.35156 24.2442 4.08333 24.0154 3.77899 24.0417C3.47429 24.0676 3.248 24.3377 3.27354 24.6451C3.57603 28.2772 5.20948 31.6447 7.87295 34.1275C10.5519 36.6247 14.0375 38 17.6876 38C25.6644 38 32.1538 31.4541 32.1538 23.4082C32.1544 20.6568 31.3902 17.9759 29.9444 15.6553ZM30.9161 21.5221C31.0029 22.144 31.0469 22.7741 31.0469 23.4083C31.0469 24.0484 31.0014 24.678 30.9154 25.2947C29.9881 25.5072 28.9321 25.6978 27.7832 25.8609C27.8414 25.0522 27.8713 24.2332 27.8713 23.4084C27.8713 22.5859 27.8419 21.7661 27.7838 20.9547C28.9236 21.1162 29.9761 21.3061 30.9161 21.5221ZM29.2115 30.2173C28.5036 30.5536 27.7514 30.8562 26.9627 31.1235C27.2881 29.8091 27.5296 28.4263 27.6814 27.0027C28.7709 26.8536 29.7841 26.68 30.6948 26.4865C30.3855 27.8164 29.88 29.0707 29.2115 30.2173ZM26.6609 20.808C26.7285 21.6667 26.7638 22.5356 26.7638 23.4083C26.7638 24.2841 26.7289 25.1523 26.6614 26.0075C26.1769 26.0658 25.6799 26.1197 25.1713 26.1681C24.8668 26.1971 24.6433 26.4696 24.6721 26.7767C24.6992 27.066 24.9404 27.2828 25.2227 27.2828C25.2401 27.2828 25.2577 27.2819 25.2754 27.2802C25.7087 27.239 26.1344 27.1939 26.5514 27.1454C26.3769 28.6646 26.0969 30.1311 25.7182 31.5081C24.353 31.89 22.8991 32.1726 21.3929 32.3486C21.5644 30.8417 21.692 29.2192 21.7711 27.5268C22.1492 27.5089 22.5252 27.4888 22.8974 27.4658C23.2026 27.447 23.4349 27.1821 23.4162 26.8742C23.3975 26.5663 23.1362 26.332 22.8297 26.3509C22.4946 26.3716 22.1562 26.3897 21.8162 26.4062C21.8492 25.4233 21.8663 24.4213 21.8663 23.4083C21.8663 22.3951 21.8493 21.3929 21.8163 20.41C23.524 20.4931 25.1554 20.6274 26.6609 20.808ZM20.7399 36.5278C20.9339 35.601 21.1052 34.5812 21.252 33.488C22.6634 33.3348 24.0341 33.091 25.3372 32.7628C25.0721 33.5585 24.7721 34.3174 24.4387 35.0316C23.3018 35.706 22.0583 36.2158 20.7399 36.5278ZM10.9415 35.04C10.6065 34.3234 10.3052 33.5618 10.0391 32.763C11.3418 33.0911 12.712 33.3347 14.123 33.488C14.2701 34.5817 14.4417 35.6013 14.636 36.5284C13.3371 36.222 12.0927 35.7206 10.9415 35.04ZM9.65797 31.5081C9.27929 30.131 8.99918 28.6645 8.82471 27.1454C10.3183 27.3184 11.9267 27.4469 13.6041 27.5267C13.6831 29.2241 13.8106 30.8451 13.9818 32.3484C12.4761 32.1724 11.0227 31.89 9.65797 31.5081ZM14.7149 27.5723C15.6896 27.6057 16.6834 27.6229 17.688 27.6229C18.6876 27.6229 19.681 27.6054 20.6606 27.572C20.5782 29.2948 20.4451 30.9407 20.2659 32.4594C19.4178 32.5275 18.5566 32.5627 17.688 32.5627C16.8191 32.5627 15.9576 32.5274 15.1091 32.4594C14.9304 30.9446 14.7973 29.3003 14.7149 27.5723ZM14.119 22.5332C14.3432 22.8629 14.6151 23.1583 14.9257 23.4083C14.6151 23.6583 14.3432 23.9537 14.1191 24.2833C13.8949 23.9537 13.623 23.6583 13.3124 23.4083C13.623 23.1583 13.8949 22.8629 14.119 22.5332ZM14.646 25.6716C14.6685 25.6353 14.6889 25.5974 14.7038 25.5562C14.9332 24.9269 15.3746 24.3926 15.9469 24.0516L16.1186 23.9493C16.3074 23.8368 16.4247 23.6295 16.4247 23.4083C16.4247 23.187 16.3075 22.9798 16.1185 22.8671L15.9471 22.765C15.3747 22.424 14.9332 21.8897 14.7039 21.2604C14.6889 21.2191 14.6685 21.1812 14.6459 21.1449C14.6525 20.8828 14.6604 20.6224 14.6692 20.3634C15.6576 20.3287 16.6668 20.3108 17.6881 20.3108C18.7093 20.3108 19.7184 20.3287 20.7067 20.3634C20.7411 21.3603 20.759 22.3782 20.759 23.4083C20.759 24.4382 20.7412 25.4559 20.7069 26.4527C19.7128 26.4876 18.7037 26.5057 17.6882 26.5057C16.6669 26.5057 15.6577 26.4878 14.6694 26.4531C14.6604 26.1941 14.6526 25.9335 14.646 25.6716ZM20.6606 19.2443C19.6861 19.211 18.6925 19.1937 17.6881 19.1937C16.6834 19.1937 15.6897 19.211 14.7149 19.2443C14.7972 17.516 14.9302 15.872 15.109 14.3572C15.9575 14.2891 16.8191 14.2538 17.688 14.2538C18.5521 14.2538 19.4149 14.2889 20.2657 14.3569C20.4451 15.8756 20.5782 17.5215 20.6606 19.2443ZM16.4889 7.45053C16.4889 7.23844 16.6599 7.06581 16.8703 7.06581H18.506C18.7163 7.06581 18.8874 7.23836 18.8874 7.45053V8.86684C18.4902 8.83407 18.0904 8.81657 17.6882 8.81657C17.2867 8.81657 16.8867 8.83363 16.4889 8.86669V7.45053H16.4889ZM15.8182 10.0654C16.4353 9.97803 17.0597 9.93365 17.6881 9.93365C18.3179 9.93365 18.9416 9.97759 19.5572 10.0644C19.7714 11.0129 19.9599 12.0746 20.1203 13.2248C19.3161 13.1663 18.5025 13.1368 17.6882 13.1368C16.8697 13.1368 16.0568 13.1667 15.2544 13.2255C15.4148 12.0754 15.6036 11.0147 15.8182 10.0654ZM13.9813 14.4682C13.8102 15.9714 13.6829 17.5922 13.604 19.2898C11.9265 19.3696 10.3183 19.4982 8.82464 19.6712C8.99918 18.152 9.27922 16.6855 9.6579 15.3084C11.0226 14.9267 12.4758 14.6442 13.9813 14.4682ZM9.24526 12.9697C9.07308 13.4364 8.91272 13.916 8.76491 14.4077C8.27614 14.5572 7.79934 14.7195 7.33546 14.8937C7.9064 14.189 8.5477 13.5446 9.24526 12.9697ZM4.68299 20.3297C4.98702 19.0225 5.4831 17.7637 6.15703 16.6029C6.86729 16.2651 7.62214 15.9613 8.41377 15.6929C8.08839 17.0073 7.84667 18.3899 7.69487 19.8135C6.61169 19.9614 5.6013 20.1341 4.68299 20.3297ZM8.61237 23.4083C8.61237 22.5322 8.64729 21.6636 8.71478 20.8082C10.2203 20.6274 11.8518 20.4932 13.5596 20.41C13.5502 20.6909 13.5422 20.9736 13.5355 21.2578C13.5352 21.2587 13.5346 21.2595 13.5343 21.2603C13.305 21.8896 12.8636 22.4239 12.2913 22.7649L12.1197 22.8671C11.9308 22.9796 11.8135 23.187 11.8135 23.4083C11.8135 23.6295 11.9308 23.8369 12.1197 23.9494L12.2912 24.0515C12.8635 24.3925 13.305 24.9268 13.5343 25.5561C13.5346 25.5569 13.5351 25.5575 13.5353 25.5583C13.542 25.8427 13.5501 26.1255 13.5595 26.4065C11.8518 26.3234 10.2203 26.1891 8.71478 26.0085C8.64729 25.153 8.61237 24.2844 8.61237 23.4083ZM7.69479 27.0032C7.84667 28.4266 8.0881 29.8093 8.41347 31.1234C7.62155 30.855 6.8664 30.551 6.156 30.2131C5.4831 29.055 4.98533 27.8001 4.68114 26.4864C5.59997 26.6822 6.6108 26.8551 7.69479 27.0032ZM7.33309 31.9218C7.79794 32.0965 8.27577 32.2592 8.76565 32.409C8.91383 32.9018 9.07411 33.3833 9.24681 33.8509C9.03498 33.6765 8.8273 33.4956 8.62515 33.3072C8.15971 32.8734 7.72846 32.4101 7.33309 31.9218ZM15.8186 36.7514C15.6041 35.8024 15.4154 34.7414 15.2547 33.5907C16.057 33.6495 16.8697 33.6798 17.6881 33.6798C18.5063 33.6798 19.3188 33.6495 20.1209 33.5907C19.9606 34.7403 19.7724 35.802 19.5583 36.7502C18.947 36.837 18.3228 36.8829 17.6881 36.8829C17.0583 36.8829 16.4339 36.8385 15.8186 36.7514ZM26.1333 33.8406C26.3046 33.376 26.4637 32.8979 26.6107 32.4086C27.0964 32.2601 27.5702 32.099 28.0313 31.926C27.4635 32.6262 26.8274 33.2678 26.1333 33.8406Z" fill="#7C68CB"/>
<path d="M22.8111 12.734C22.8111 12.9763 22.9397 13.2034 23.1465 13.3266L23.4646 13.5161C24.6199 14.2044 25.5112 15.283 25.974 16.5534V16.5535C26.0738 16.8273 26.3251 17.0042 26.6143 17.0042C26.9035 17.0042 27.1549 16.8274 27.2548 16.5534C27.7177 15.283 28.6088 14.2044 29.7642 13.5161L30.0824 13.3266C30.2892 13.2033 30.4176 12.9763 30.4176 12.734C30.4176 12.4918 30.2892 12.2647 30.0824 12.1414L29.7642 11.9519C28.6089 11.2636 27.7177 10.185 27.2548 8.9145C27.1549 8.64074 26.9036 8.4638 26.6144 8.4638C26.3252 8.4638 26.0738 8.64067 25.974 8.91458C25.5111 10.185 24.6199 11.2636 23.4645 11.9519L23.1465 12.1414C22.9397 12.2646 22.8111 12.4918 22.8111 12.734ZM26.6144 10.1947C27.159 11.2167 27.9509 12.0933 28.9155 12.7341C27.9509 13.3748 27.159 14.2515 26.6144 15.2735C26.0698 14.2515 25.2779 13.3749 24.3133 12.7341C25.2779 12.0933 26.0698 11.2167 26.6144 10.1947Z" fill="#7C68CB"/>
<path d="M5.22004 32.8498L5.00327 32.7207C4.25107 32.2726 3.6709 31.5703 3.3696 30.7434C3.27731 30.49 3.03551 30.3196 2.7678 30.3196H2.76765C2.50001 30.3196 2.25814 30.4898 2.1657 30.7432C1.86432 31.5702 1.28415 32.2725 0.531882 32.7207L0.315261 32.8498C0.120862 32.9656 0 33.179 0 33.4067C0 33.6345 0.120788 33.848 0.315113 33.9637L0.531882 34.0928C1.28408 34.5409 1.86425 35.2432 2.16563 36.0702V36.0703C2.25799 36.3236 2.49986 36.4939 2.7675 36.4939H2.76765C3.03536 36.4938 3.27716 36.3235 3.36945 36.0702C3.67083 35.2431 4.251 34.5409 5.00319 34.0928L5.21996 33.9636C5.41429 33.8478 5.53508 33.6344 5.53508 33.4067C5.53515 33.1791 5.41443 32.9657 5.22004 32.8498ZM2.76757 34.7818C2.4388 34.2486 2.01117 33.7806 1.50838 33.4068C2.01117 33.033 2.43888 32.565 2.76757 32.0319C3.09635 32.5651 3.52405 33.033 4.02677 33.4069C3.52413 33.7806 3.09635 34.2486 2.76757 34.7818Z" fill="#7C68CB"/>
</svg>
