<svg width="33" height="34" viewBox="0 0 33 34" fill="none" xmlns="http://www.w3.org/2000/svg">
<path d="M16.0984 8.09679C11.1746 8.09679 7.16882 12.1026 7.16882 17.0264C7.16882 21.9502 11.1746 25.956 16.0984 25.956C21.0222 25.956 25.028 21.9502 25.028 17.0264C25.028 12.1026 21.0222 8.09679 16.0984 8.09679ZM16.0984 24.6983C11.8681 24.6983 8.4265 21.2567 8.4265 17.0264C8.4265 12.7961 11.8681 9.35448 16.0984 9.35448C20.3287 9.35448 23.7703 12.7961 23.7703 17.0264C23.7703 21.2567 20.3287 24.6983 16.0984 24.6983Z" fill="#7C68CB"/>
<path d="M31.8629 1.00143C31.6575 0.892386 31.4086 0.905529 31.2159 1.0357C28.1287 3.12164 26.2857 6.59134 26.2857 10.3172V18.4765C26.2857 19.3517 26.6265 20.1745 27.2453 20.7933L28.4237 21.9718V31.2382C28.4237 32.2785 29.27 33.1248 30.3103 33.1248C31.3505 33.1248 32.1968 32.2785 32.1968 31.2382V1.55682C32.1968 1.32421 32.0684 1.11059 31.8629 1.00143ZM30.9391 31.2382C30.9391 31.585 30.657 31.8671 30.3103 31.8671C29.9635 31.8671 29.6814 31.585 29.6814 31.2382V21.7113C29.6814 21.5445 29.6151 21.3846 29.4972 21.2666L28.1346 19.904C27.7533 19.5227 27.5433 19.0158 27.5433 18.4765V10.3172C27.5433 7.42576 28.7936 4.70827 30.9391 2.83319V31.2382Z" fill="#7C68CB"/>
<path d="M14.6557 12.0392C14.5194 11.7198 14.1497 11.5715 13.8304 11.7077C11.6966 12.6187 10.3177 14.7064 10.3177 17.0264C10.3177 17.3736 10.5993 17.6552 10.9466 17.6552C11.2939 17.6552 11.5754 17.3736 11.5754 17.0264C11.5754 15.211 12.6544 13.5773 14.3242 12.8645C14.6436 12.7282 14.792 12.3587 14.6557 12.0392Z" fill="#7C68CB"/>
<path d="M16.0984 11.2457L16.0666 11.2458C15.7193 11.2481 15.4397 11.5315 15.442 11.8788C15.4443 12.2247 15.7254 12.5035 16.0708 12.5035C16.0722 12.5035 16.0737 12.5035 16.0751 12.5035L16.0984 12.5034C16.4457 12.5034 16.7272 12.2219 16.7272 11.8746C16.7272 11.5273 16.4457 11.2457 16.0984 11.2457Z" fill="#7C68CB"/>
<path d="M24.8156 8.75576C23.7046 7.5851 22.3949 6.66397 20.9231 6.01803C19.3991 5.34919 17.7758 5.01005 16.0984 5.01005C14.1817 5.01005 12.3495 5.44811 10.6527 6.31214C10.3433 6.46973 10.2201 6.84835 10.3777 7.15787C10.5353 7.46726 10.914 7.59039 11.2235 7.43286C12.7418 6.65976 14.3819 6.26774 16.0984 6.26774C19.0789 6.26774 21.8507 7.45877 23.9033 9.62155C24.027 9.75185 24.1931 9.8175 24.3596 9.8175C24.515 9.8175 24.6707 9.76021 24.7923 9.64476C25.0443 9.40567 25.0546 9.00767 24.8156 8.75576Z" fill="#7C68CB"/>
<path d="M25.4261 23.5902C25.1536 23.3749 24.7582 23.4211 24.5428 23.6935C22.4869 26.2938 19.4091 27.785 16.0984 27.785C14.0264 27.785 12.0149 27.1949 10.2814 26.0784C9.98949 25.8904 9.60024 25.9747 9.41222 26.2666C9.22419 26.5586 9.30846 26.9478 9.60043 27.1358C11.5374 28.3833 13.7844 29.0426 16.0984 29.0426C19.796 29.0426 23.2334 27.3773 25.5293 24.4735C25.7447 24.2011 25.6986 23.8056 25.4261 23.5902Z" fill="#7C68CB"/>
<path d="M8.54963 24.6935L8.54039 24.6829C8.53705 24.6788 8.53372 24.6746 8.53026 24.6706C8.30658 24.4048 7.90991 24.3709 7.64422 24.5945C7.37854 24.8182 7.34445 25.2149 7.56819 25.4806L7.57429 25.4878L7.57461 25.4876C7.58127 25.496 7.58819 25.5044 7.59536 25.5127C7.71975 25.6576 7.8957 25.732 8.07278 25.732C8.21779 25.732 8.36349 25.6821 8.48209 25.5803C8.74558 25.354 8.77583 24.957 8.54963 24.6935Z" fill="#7C68CB"/>
<path d="M7.79766 0.927979C7.45035 0.927979 7.16882 1.20951 7.16882 1.55682V8.34833H6.03639C6.03646 8.34481 6.0369 8.34141 6.0369 8.33783V1.55682C6.0369 1.20951 5.75536 0.927979 5.40805 0.927979C5.06074 0.927979 4.77921 1.20951 4.77921 1.55682V8.33783C4.77921 8.34135 4.77971 8.34481 4.77971 8.34833H3.64679C3.64685 8.34481 3.64729 8.34141 3.64729 8.33783V1.55682C3.64729 1.20951 3.36576 0.927979 3.01845 0.927979C2.67114 0.927979 2.38961 1.20951 2.38961 1.55682V8.33783C2.38961 8.34135 2.39011 8.34481 2.39011 8.34833H1.25769V1.55682C1.25769 1.20951 0.976154 0.927979 0.628844 0.927979C0.281533 0.927979 0 1.20951 0 1.55682V9.22871C0 10.7713 0.935971 12.1635 2.32672 12.7653V31.2382C2.32672 32.2785 3.17302 33.1248 4.21325 33.1248C5.25348 33.1248 6.09978 32.2785 6.09978 31.2382V12.7653C7.49053 12.1635 8.4265 10.7713 8.4265 9.22871V1.55682C8.4265 1.20951 8.14497 0.927979 7.79766 0.927979ZM5.29637 11.7202C5.02735 11.7979 4.8421 12.0442 4.8421 12.3243V31.2382C4.8421 31.585 4.56 31.8671 4.21325 31.8671C3.86651 31.8671 3.58441 31.585 3.58441 31.2382V12.3243C3.58441 12.0442 3.39921 11.7979 3.13013 11.7202C2.1502 11.437 1.43345 10.5959 1.28611 9.60602H7.14033C6.99305 10.5959 6.2763 11.437 5.29637 11.7202Z" fill="#7C68CB"/>
</svg>
