<svg width="42" height="33" viewBox="0 0 42 33" fill="none" xmlns="http://www.w3.org/2000/svg">
<path d="M21.3012 29.1543C21.3427 29.2677 21.3751 29.3882 21.3974 29.5143C21.4191 29.6368 21.4305 29.7602 21.4305 29.883C21.4305 30.4821 21.1814 31.0247 20.7789 31.4172C20.3764 31.8097 19.8201 32.0526 19.2057 32.0526C18.5915 32.0526 18.0351 31.8097 17.6327 31.4172V31.4148C17.2302 31.0221 16.9811 30.4804 16.9811 29.883C16.9811 29.7604 16.9925 29.6369 17.014 29.5142C17.0363 29.388 17.0688 29.2675 17.1103 29.1543L17.2563 28.7558H21.1554L21.3012 29.1543ZM19.9089 30.5687C20.0722 30.4094 20.1791 30.1946 20.1972 29.9558H18.2143C18.2324 30.1953 18.3388 30.4105 18.5016 30.5698L18.5027 30.5687C18.6825 30.744 18.9313 30.8526 19.2057 30.8526C19.4803 30.8526 19.729 30.744 19.9089 30.5687Z" fill="#7C68CB"/>
<path d="M16.8482 20.637H21.5634C21.8249 20.637 22.0624 20.7409 22.2341 20.9083C22.4057 21.0758 22.5122 21.3074 22.5122 21.5624V24.1727L21.7071 23.9168C21.3087 23.7903 20.8988 23.6933 20.4819 23.6295C20.0778 23.5677 19.6513 23.5353 19.2057 23.5353C18.7602 23.5353 18.3338 23.5677 17.9296 23.6295C17.5126 23.6934 17.1028 23.7903 16.7044 23.9168L15.8993 24.1727V21.5624C15.8993 21.3074 16.0057 21.0758 16.1774 20.9083H16.1798C16.3517 20.741 16.5883 20.637 16.8482 20.637ZM21.2818 21.8371H17.1297V22.5622C17.3301 22.5181 17.5343 22.4801 17.7423 22.4482C18.2266 22.3741 18.7162 22.3353 19.2057 22.3353C19.6953 22.3353 20.185 22.3741 20.6693 22.4482C20.8772 22.4801 21.0815 22.518 21.2818 22.5621V21.8371Z" fill="#7C68CB"/>
<path d="M18.5905 21.237V5.95229H19.821V21.237H18.5905Z" fill="#7C68CB"/>
<path d="M10.9654 29.9557V29.3557C10.9654 27.4015 11.9006 25.6366 13.4126 24.3635C14.9008 23.1104 16.9497 22.3353 19.2057 22.3353C21.4619 22.3353 23.5107 23.1104 24.9989 24.3635C26.511 25.6366 27.4462 27.4015 27.4462 29.3557V29.9557H10.9654ZM12.2328 28.7557H26.1788C26.0115 27.4028 25.2851 26.185 24.1963 25.2682C22.9248 24.1975 21.1607 23.5353 19.2057 23.5353C17.2508 23.5353 15.4867 24.1976 14.2153 25.2682C13.1264 26.185 12.4001 27.4028 12.2328 28.7557Z" fill="#7C68CB"/>
<path d="M21.3012 29.1543C21.3427 29.2677 21.3751 29.3882 21.3974 29.5143C21.4191 29.6368 21.4305 29.7602 21.4305 29.883C21.4305 30.4793 21.1815 31.021 20.7788 31.4147L20.7764 31.4171C20.3727 31.8098 19.8172 32.0526 19.2057 32.0526C18.5937 32.0526 18.0378 31.8093 17.6339 31.4159L17.6327 31.4171C17.2302 31.0246 16.9811 30.482 16.9811 29.883C16.9811 29.7604 16.9925 29.6369 17.014 29.5142C17.0363 29.388 17.0688 29.2675 17.1103 29.1543L17.2563 28.7558H21.1554L21.3012 29.1543ZM19.9112 30.5686C20.0734 30.4105 20.1794 30.1957 20.1973 29.9558H18.2144C18.2325 30.1945 18.3394 30.4093 18.5027 30.5686V30.5709C18.681 30.7449 18.9296 30.8526 19.2057 30.8526C19.4818 30.8526 19.7304 30.745 19.9088 30.5709L19.9112 30.5686Z" fill="#7C68CB"/>
<path d="M16.8482 20.637H21.5634C21.8249 20.637 22.0624 20.7409 22.2341 20.9083C22.4057 21.0758 22.5122 21.3074 22.5122 21.5624V24.1727L21.7071 23.9168C21.3087 23.7903 20.8988 23.6933 20.4819 23.6295C20.0778 23.5677 19.6513 23.5353 19.2057 23.5353C18.7602 23.5353 18.3338 23.5677 17.9296 23.6295C17.5126 23.6934 17.1028 23.7903 16.7044 23.9168L15.8993 24.1727V21.5624C15.8993 21.3074 16.0057 21.0758 16.1774 20.9083H16.1798C16.3517 20.741 16.5883 20.637 16.8482 20.637ZM21.2818 21.8371H17.1297V22.5622C17.3301 22.5181 17.5343 22.4801 17.7423 22.4482C18.2266 22.3741 18.7162 22.3353 19.2057 22.3353C19.6953 22.3353 20.185 22.3741 20.6693 22.4482C20.8772 22.4801 21.0815 22.518 21.2818 22.5621V21.8371Z" fill="#7C68CB"/>
<path d="M19.821 21.237C19.821 21.5684 19.5455 21.8371 19.2057 21.8371C18.866 21.8371 18.5905 21.5684 18.5905 21.237V0.60001C18.5905 0.268634 18.866 0 19.2057 0C19.5455 0 19.821 0.268634 19.821 0.60001V21.237Z" fill="#7C68CB"/>
<path d="M10.9654 29.9557V29.3557C10.9654 27.4015 11.9006 25.6366 13.4126 24.3635C14.9008 23.1104 16.9497 22.3353 19.2057 22.3353C21.4619 22.3353 23.5107 23.1104 24.9989 24.3635C26.511 25.6366 27.4462 27.4015 27.4462 29.3557V29.9557H10.9654ZM12.2328 28.7557H26.1788C26.0115 27.4028 25.2851 26.185 24.1963 25.2682C22.9248 24.1975 21.1607 23.5353 19.2057 23.5353C17.2508 23.5353 15.4867 24.1976 14.2153 25.2682C13.1264 26.185 12.4001 27.4028 12.2328 28.7557Z" fill="#7C68CB"/>
<path d="M10.3359 17.086C10.3773 17.1994 10.4098 17.3199 10.4321 17.446C10.4538 17.5686 10.4651 17.692 10.4651 17.8147C10.4651 18.411 10.2161 18.9528 9.81345 19.3465L9.81103 19.3489C9.4073 19.7416 8.85175 19.9844 8.24039 19.9844C7.62825 19.9844 7.07241 19.7411 6.66858 19.3476L6.66732 19.3489C6.26485 18.9564 6.01575 18.4138 6.01575 17.8147C6.01575 17.692 6.02709 17.5686 6.04879 17.446C6.07107 17.3199 6.10353 17.1994 6.145 17.086L6.29082 16.6876H10.1902L10.3359 17.086ZM8.94583 18.5003C9.10792 18.3424 9.21391 18.1276 9.23193 17.8876H7.24903C7.26715 18.1263 7.37402 18.341 7.53737 18.5003V18.5027C7.71574 18.6768 7.96435 18.7844 8.24039 18.7844C8.51652 18.7844 8.76513 18.6767 8.9434 18.5027L8.94583 18.5003Z" fill="#7C68CB"/>
<path d="M5.88282 8.5688H10.5981C10.8596 8.5688 11.097 8.67265 11.2687 8.84009C11.4404 9.00752 11.5469 9.23912 11.5469 9.49414V12.1044L10.7417 11.8485C10.3433 11.722 9.9335 11.6251 9.51659 11.5613C9.11247 11.4995 8.68597 11.4671 8.24039 11.4671C7.7948 11.4671 7.3684 11.4995 6.96428 11.5613C6.54728 11.6252 6.13744 11.722 5.73904 11.8485L4.9339 12.1044V9.49414C4.9339 9.23912 5.04038 9.00752 5.21207 8.84009H5.21449C5.38637 8.67274 5.62297 8.5688 5.88282 8.5688ZM10.3164 9.76882H6.16438V10.4939C6.36474 10.4499 6.56898 10.4118 6.7769 10.38C7.26124 10.3059 7.75081 10.2671 8.24039 10.2671C8.72996 10.2671 9.21963 10.3059 9.70397 10.38C9.91189 10.4118 10.1161 10.4498 10.3164 10.4938V9.76882Z" fill="#7C68CB"/>
<path d="M8.85562 9.16881C8.85562 9.50019 8.58017 9.76882 8.24039 9.76882C7.9006 9.76882 7.62515 9.50019 7.62515 9.16881V0.793998C7.62515 0.462622 7.9006 0.193987 8.24039 0.193987C8.58017 0.193987 8.85562 0.462622 8.85562 0.793998V9.16881Z" fill="#7C68CB"/>
<path d="M0 17.8875V17.2875C0 15.3331 0.935353 13.5684 2.44728 12.2953C3.93548 11.0422 5.98436 10.2671 8.24039 10.2671C10.4965 10.2671 12.5454 11.0422 14.0336 12.2953C15.5455 13.5684 16.4809 15.3331 16.4809 17.2875V17.8875H0ZM1.26739 16.6875H15.2134C15.0462 15.3346 14.3198 14.1168 13.231 13.1999C11.9594 12.1293 10.1954 11.4671 8.24039 11.4671C6.28549 11.4671 4.52136 12.1294 3.2499 13.1999C2.16108 14.1168 1.43471 15.3346 1.26739 16.6875Z" fill="#7C68CB"/>
<path d="M35.855 22.8499C35.8965 22.9633 35.9289 23.0838 35.9512 23.2099C35.9729 23.3325 35.9843 23.456 35.9843 23.5786C35.9843 24.176 35.7352 24.7178 35.3327 25.1105V25.1128C34.9302 25.5053 34.3739 25.7483 33.7596 25.7483C33.1471 25.7483 32.5915 25.5053 32.1889 25.1128L32.1865 25.1105C31.784 24.7178 31.5349 24.176 31.5349 23.5786C31.5349 23.456 31.5462 23.3325 31.5679 23.2099C31.5902 23.0838 31.6227 22.9633 31.6641 22.8499L31.8098 22.4514H35.7092L35.855 22.8499ZM34.4638 24.2654C34.6266 24.1062 34.7329 23.8911 34.7511 23.6515H32.7681C32.7862 23.8911 32.8926 24.1062 33.0553 24.2654C33.2351 24.4401 33.484 24.5483 33.7596 24.5483C34.0341 24.5483 34.2828 24.4397 34.4626 24.2643L34.4638 24.2654Z" fill="#7C68CB"/>
<path d="M31.402 14.3327H36.1172C36.3789 14.3327 36.6162 14.4365 36.7879 14.604C36.9596 14.7714 37.0661 15.0029 37.0661 15.2581V17.8683L36.261 17.6124C35.8627 17.4859 35.4528 17.389 35.0359 17.3253C34.6318 17.2635 34.2053 17.2311 33.7596 17.2311C33.3138 17.2311 32.8873 17.2635 32.4832 17.3253C32.0663 17.389 31.6565 17.4859 31.2583 17.6124L30.4531 17.8683V15.2581C30.4531 15.0047 30.5597 14.7739 30.7313 14.6063V14.604C30.903 14.4365 31.1405 14.3327 31.402 14.3327ZM35.8356 15.5327H31.6836V16.2577C31.8839 16.2138 32.088 16.1757 32.2958 16.144C32.7803 16.0699 33.2699 16.031 33.7596 16.031C34.2492 16.031 34.7389 16.0699 35.2233 16.144C35.4311 16.1757 35.6354 16.2138 35.8356 16.2578V15.5327Z" fill="#7C68CB"/>
<path d="M33.1444 14.9327V0.536796H34.3749V14.9327H33.1444Z" fill="#7C68CB"/>
<path d="M25.5191 23.6514V23.0513C25.5191 21.097 26.4545 19.3322 27.9664 18.0592C29.4546 16.8062 31.5035 16.031 33.7596 16.031C36.0157 16.031 38.0645 16.8061 39.5527 18.0592C41.0647 19.3322 42 21.097 42 23.0513V23.6514H25.5191ZM26.7865 22.4513H40.7326C40.5653 21.0984 39.8389 19.8806 38.7501 18.9638C37.4786 17.8932 35.7146 17.2311 33.7596 17.2311C31.8046 17.2311 30.0405 17.8933 28.769 18.9638C27.6802 19.8806 26.9538 21.0984 26.7865 22.4513Z" fill="#7C68CB"/>
<path d="M35.855 22.8499C35.8965 22.9633 35.9289 23.0838 35.9512 23.2099C35.9729 23.3325 35.9843 23.456 35.9843 23.5786C35.9843 24.176 35.7352 24.7178 35.3327 25.1105V25.1128C34.9302 25.5053 34.3739 25.7483 33.7596 25.7483C33.1471 25.7483 32.5915 25.5053 32.1889 25.1128L32.1865 25.1105C31.784 24.7178 31.5349 24.176 31.5349 23.5786C31.5349 23.456 31.5462 23.3325 31.5679 23.2099C31.5902 23.0838 31.6227 22.9633 31.6641 22.8499L31.8098 22.4514H35.7092L35.855 22.8499ZM34.4638 24.2654C34.6266 24.1062 34.7329 23.8911 34.7511 23.6515H32.7681C32.7862 23.8911 32.8926 24.1062 33.0553 24.2654C33.2351 24.4401 33.484 24.5483 33.7596 24.5483C34.0341 24.5483 34.2828 24.4397 34.4626 24.2643L34.4638 24.2654Z" fill="#7C68CB"/>
<path d="M31.402 14.3327H36.1172C36.3789 14.3327 36.6162 14.4365 36.7879 14.604C36.9596 14.7714 37.0661 15.0029 37.0661 15.2581V17.8683L36.261 17.6124C35.8627 17.4859 35.4528 17.389 35.0359 17.3253C34.6318 17.2635 34.2053 17.2311 33.7596 17.2311C33.3138 17.2311 32.8873 17.2635 32.4832 17.3253C32.0663 17.389 31.6565 17.4859 31.2583 17.6124L30.4531 17.8683V15.2581C30.4531 15.0047 30.5597 14.7739 30.7313 14.6063V14.604C30.903 14.4365 31.1405 14.3327 31.402 14.3327ZM35.8356 15.5327H31.6836V16.2577C31.8839 16.2138 32.088 16.1757 32.2958 16.144C32.7803 16.0699 33.2699 16.031 33.7596 16.031C34.2492 16.031 34.7389 16.0699 35.2233 16.144C35.4311 16.1757 35.6354 16.2138 35.8356 16.2578V15.5327Z" fill="#7C68CB"/>
<path d="M34.3749 14.9327C34.3749 15.2641 34.0994 15.5327 33.7596 15.5327C33.4198 15.5327 33.1444 15.2641 33.1444 14.9327V0.948394C33.1444 0.617018 33.4198 0.348384 33.7596 0.348384C34.0994 0.348384 34.3749 0.617018 34.3749 0.948394V14.9327Z" fill="#7C68CB"/>
<path d="M25.5191 23.6514V23.0513C25.5191 21.097 26.4545 19.3322 27.9664 18.0592C29.4546 16.8062 31.5035 16.031 33.7596 16.031C36.0157 16.031 38.0645 16.8061 39.5527 18.0592C41.0647 19.3322 42 21.097 42 23.0513V23.6514H25.5191ZM26.7865 22.4513H40.7326C40.5653 21.0984 39.8389 19.8806 38.7501 18.9638C37.4786 17.8932 35.7146 17.2311 33.7596 17.2311C31.8046 17.2311 30.0405 17.8933 28.769 18.9638C27.6802 19.8806 26.9538 21.0984 26.7865 22.4513Z" fill="#7C68CB"/>
</svg>
