<svg width="30" height="40" viewBox="0 0 30 40" fill="none" xmlns="http://www.w3.org/2000/svg">
<path d="M26.8839 16.2559H26.0083V13.1162C26.0083 13.1014 26.0071 13.0869 26.0061 13.0724H26.0083V10.1266C26.0083 9.39846 25.4158 8.80601 24.6877 8.80601H21.5559C20.8278 8.80601 20.2353 9.39846 20.2353 10.1266V13.0724H20.2375C20.2364 13.0869 20.2353 13.1014 20.2353 13.1162V16.2558H18.9593C18.6612 15.6326 18.253 15.0613 17.7476 14.5774L16.6179 13.4959C15.7083 12.625 15.1865 11.4032 15.1865 10.1437V1.8091C15.1865 1.08097 14.5941 0.488525 13.8659 0.488525H9.45508C8.72696 0.488525 8.13451 1.08097 8.13451 1.8091V10.1437C8.13451 11.4032 7.61277 12.625 6.70309 13.4959L5.57343 14.5774C4.44189 15.6608 3.79285 17.1806 3.79285 18.7472V25.3333C3.79285 25.6459 4.04618 25.8993 4.35881 25.8993C4.67145 25.8993 4.92477 25.6459 4.92477 25.3333V20.0495H18.3962V32.3738H9.3056L9.61121 28.885C9.64344 28.5171 9.51877 28.1499 9.2693 27.8776C9.01982 27.6054 8.66493 27.4492 8.2957 27.4492H1.32052C0.951209 27.4492 0.596315 27.6054 0.346916 27.8776C0.0973656 28.1499 -0.027221 28.5171 0.00500095 28.885L0.796438 37.9193C0.856581 38.6065 1.42209 39.1247 2.11195 39.1247H7.50426C8.19413 39.1247 8.75963 38.6065 8.81985 37.9193L9.20652 33.5058H18.3962V37.9928H10.978C10.6654 37.9928 10.4121 38.2462 10.4121 38.5587C10.4121 38.8713 10.6654 39.1247 10.978 39.1247H28.0913C28.8194 39.1247 29.4119 38.5322 29.4119 37.8041V18.7839C29.4119 17.39 28.2778 16.2559 26.8839 16.2559ZM21.3672 10.1266C21.3672 10.0226 21.4518 9.93793 21.5559 9.93793H24.6877C24.7917 9.93793 24.8763 10.0226 24.8763 10.1266V12.5503H21.3672V10.1266ZM7.91009 35.333H1.70612L1.42903 32.1701H8.18719L7.91009 35.333ZM1.18144 28.6424C1.20234 28.6196 1.2483 28.5812 1.32052 28.5812H8.29577C8.36799 28.5812 8.41387 28.6196 8.43485 28.6424C8.45583 28.6653 8.49001 28.7144 8.48367 28.7864L8.28642 31.0382H1.32987L1.13262 28.7864C1.1262 28.7143 1.16039 28.6653 1.18144 28.6424ZM7.50426 37.9928H2.11195C2.0134 37.9928 1.93258 37.9187 1.92405 37.8205L1.80528 36.465H7.81094L7.69216 37.8206C7.68363 37.9187 7.60274 37.9928 7.50426 37.9928ZM9.26636 5.5067H14.0545V7.07425H9.26636V5.5067ZM9.45501 1.62044H13.8659C13.9699 1.62044 14.0545 1.70511 14.0545 1.8091V4.37478H9.26636V1.8091C9.26636 1.70511 9.35095 1.62044 9.45501 1.62044ZM4.92477 18.9177V18.7473C4.92477 17.4879 5.44651 16.266 6.35619 15.3951L7.48585 14.3135C8.61739 13.2302 9.26643 11.7104 9.26643 10.1438V8.20625H14.0546V10.1438C14.0546 11.7104 14.7036 13.2302 15.8351 14.3135L16.9648 15.3951C17.8745 16.2661 18.3963 17.4879 18.3963 18.7473V18.9177H4.92477ZM28.0913 37.9928H19.5281V18.7473C19.5281 18.2867 19.4705 17.8305 19.3625 17.3878H20.424C20.9441 17.3878 21.3672 16.9647 21.3672 16.4446V13.6822H24.8763V16.4445C24.8763 16.9647 25.2995 17.3878 25.8196 17.3878H26.8839C27.6537 17.3878 28.2799 18.014 28.2799 18.7838V22.0591H21.3737C21.061 22.0591 20.8077 22.3125 20.8077 22.6251C20.8077 22.9376 21.061 23.191 21.3737 23.191H28.2799V33.3602H21.3737C21.061 33.3602 20.8077 33.6136 20.8077 33.9261C20.8077 34.2387 21.061 34.4921 21.3737 34.4921H28.2799V37.8041C28.2799 37.9081 28.1954 37.9928 28.0913 37.9928Z" fill="#7C68CB"/>
<path d="M23.3868 30.1018C24.8489 30.1018 26.0384 28.9123 26.0384 27.4502C26.0384 25.9882 24.8489 24.7987 23.3868 24.7987C21.9247 24.7987 20.7353 25.9882 20.7353 27.4502C20.7353 28.9123 21.9247 30.1018 23.3868 30.1018ZM23.3868 25.9306C24.2247 25.9306 24.9065 26.6123 24.9065 27.4502C24.9065 28.2881 24.2248 28.9699 23.3868 28.9699C22.5489 28.9699 21.8672 28.2881 21.8672 27.4502C21.8672 26.6123 22.5489 25.9306 23.3868 25.9306Z" fill="#7C68CB"/>
<path d="M25.3999 31.0059H21.3737C21.061 31.0059 20.8077 31.2593 20.8077 31.5718C20.8077 31.8844 21.061 32.1378 21.3737 32.1378H25.3999C25.7125 32.1378 25.9658 31.8844 25.9658 31.5718C25.9658 31.2593 25.7125 31.0059 25.3999 31.0059Z" fill="#7C68CB"/>
<path d="M14.6537 26.451C15.3818 26.451 15.9743 25.8586 15.9743 25.1305V23.3798C15.9743 22.6516 15.3818 22.0592 14.6537 22.0592H8.66719C7.93907 22.0592 7.34662 22.6516 7.34662 23.3798V25.1305C7.34662 25.8586 7.93907 26.451 8.66719 26.451H14.6537ZM8.47854 25.1305V23.3798C8.47854 23.2758 8.56313 23.1911 8.66719 23.1911H14.6537C14.7577 23.1911 14.8423 23.2758 14.8423 23.3798V25.1305C14.8423 25.2344 14.7577 25.3191 14.6537 25.3191H8.66719C8.56313 25.3191 8.47854 25.2344 8.47854 25.1305Z" fill="#7C68CB"/>
</svg>
