<svg width="40" height="30" viewBox="0 0 40 30" fill="none" xmlns="http://www.w3.org/2000/svg">
<path d="M5.74375 11C5.63375 11 5.54875 10.97 5.48875 10.91C5.42875 10.84 5.39875 10.755 5.39875 10.655V0.844999C5.39875 0.744999 5.42875 0.665 5.48875 0.605C5.54875 0.534999 5.63375 0.499999 5.74375 0.499999H6.50875C6.61875 0.499999 6.70375 0.534999 6.76375 0.605C6.83375 0.665 6.86875 0.744999 6.86875 0.844999V9.65H10.5438V0.844999C10.5438 0.744999 10.5738 0.665 10.6338 0.605C10.7038 0.534999 10.7888 0.499999 10.8888 0.499999H11.6538C11.7638 0.499999 11.8488 0.534999 11.9088 0.605C11.9788 0.665 12.0137 0.744999 12.0137 0.844999V9.65H15.6888V0.844999C15.6888 0.744999 15.7188 0.665 15.7788 0.605C15.8488 0.534999 15.9338 0.499999 16.0338 0.499999H16.7988C16.9088 0.499999 16.9938 0.534999 17.0538 0.605C17.1238 0.665 17.1588 0.744999 17.1588 0.844999V10.655C17.1588 10.755 17.1238 10.84 17.0538 10.91C16.9938 10.97 16.9088 11 16.7988 11H5.74375ZM19.9339 13.85C19.8339 13.85 19.7489 13.815 19.6789 13.745C19.6189 13.685 19.5889 13.605 19.5889 13.505V12.995C19.5889 12.895 19.6189 12.81 19.6789 12.74C19.7489 12.68 19.8339 12.65 19.9339 12.65H20.3239C20.5539 12.65 20.7389 12.605 20.8789 12.515C21.0189 12.425 21.1439 12.27 21.2539 12.05C21.3739 11.84 21.5139 11.55 21.6739 11.18L24.9289 3.455C24.9589 3.375 24.9989 3.315 25.0489 3.275C25.1089 3.225 25.1939 3.2 25.3039 3.2H25.9789C26.0589 3.2 26.1289 3.23 26.1889 3.29C26.2489 3.35 26.2789 3.42 26.2789 3.5C26.2789 3.54 26.2739 3.58 26.2639 3.62C26.2539 3.65 26.2339 3.7 26.2039 3.77L23.3539 10.52C23.2039 10.88 23.0389 11.255 22.8589 11.645C22.6889 12.035 22.4939 12.395 22.2739 12.725C22.0639 13.065 21.8139 13.335 21.5239 13.535C21.2339 13.745 20.8939 13.85 20.5039 13.85H19.9339ZM22.0189 10.775L18.9889 3.77C18.9389 3.65 18.9139 3.565 18.9139 3.515C18.9239 3.425 18.9589 3.35 19.0189 3.29C19.0789 3.23 19.1489 3.2 19.2289 3.2H19.9339C20.0439 3.2 20.1239 3.225 20.1739 3.275C20.2339 3.325 20.2789 3.385 20.3089 3.455L22.7989 9.41L22.0189 10.775ZM28.1216 11C28.0216 11 27.9416 10.97 27.8816 10.91C27.8216 10.85 27.7916 10.77 27.7916 10.67V3.485C27.7916 3.405 27.8216 3.34 27.8816 3.29C27.9516 3.23 28.0216 3.2 28.0916 3.2H28.8566C29.0166 3.2 29.1416 3.28 29.2316 3.44L31.7816 8.21L34.3466 3.44C34.4366 3.28 34.5616 3.2 34.7216 3.2H35.4716C35.5516 3.2 35.6216 3.23 35.6816 3.29C35.7416 3.34 35.7716 3.405 35.7716 3.485V10.67C35.7716 10.77 35.7416 10.85 35.6816 10.91C35.6216 10.97 35.5466 11 35.4566 11H34.7216C34.6216 11 34.5416 10.97 34.4816 10.91C34.4216 10.85 34.3916 10.77 34.3916 10.67V4.685L34.9166 4.745L32.4716 9.365C32.4216 9.465 32.3616 9.555 32.2916 9.635C32.2216 9.715 32.1166 9.755 31.9766 9.755H31.5866C31.4566 9.755 31.3566 9.715 31.2866 9.635C31.2166 9.555 31.1516 9.465 31.0916 9.365L28.7216 4.97L29.1866 4.925V10.67C29.1866 10.77 29.1566 10.85 29.0966 10.91C29.0366 10.97 28.9566 11 28.8566 11H28.1216ZM1.23332 29C1.13332 29 1.04832 28.97 0.97832 28.91C0.91832 28.84 0.88832 28.755 0.88832 28.655V28.175C0.88832 28.085 0.91332 27.985 0.96332 27.875C1.01332 27.765 1.11332 27.645 1.26332 27.515L4.44332 24.335C4.95332 23.905 5.35332 23.54 5.64332 23.24C5.94332 22.93 6.15332 22.635 6.27332 22.355C6.40332 22.075 6.46832 21.785 6.46832 21.485C6.46832 20.915 6.30832 20.465 5.98832 20.135C5.66832 19.795 5.19332 19.625 4.56332 19.625C4.16332 19.625 3.81832 19.71 3.52832 19.88C3.23832 20.04 3.01332 20.265 2.85332 20.555C2.69332 20.835 2.58332 21.155 2.52332 21.515C2.50332 21.645 2.44832 21.735 2.35832 21.785C2.27832 21.835 2.20332 21.86 2.13332 21.86H1.35332C1.26332 21.86 1.18832 21.835 1.12832 21.785C1.06832 21.725 1.03832 21.655 1.03832 21.575C1.04832 21.195 1.12832 20.815 1.27832 20.435C1.42832 20.045 1.64832 19.695 1.93832 19.385C2.23832 19.065 2.60332 18.81 3.03332 18.62C3.47332 18.43 3.98332 18.335 4.56332 18.335C5.35332 18.335 5.99832 18.48 6.49832 18.77C7.00832 19.05 7.38332 19.425 7.62332 19.895C7.86332 20.365 7.98332 20.88 7.98332 21.44C7.98332 21.88 7.90832 22.285 7.75832 22.655C7.60832 23.015 7.38832 23.37 7.09832 23.72C6.81832 24.06 6.46832 24.41 6.04832 24.77L3.16832 27.695H7.84832C7.95832 27.695 8.04332 27.725 8.10332 27.785C8.17332 27.845 8.20832 27.93 8.20832 28.04V28.655C8.20832 28.755 8.17332 28.84 8.10332 28.91C8.04332 28.97 7.95832 29 7.84832 29H1.23332ZM13.427 29.15C12.797 29.15 12.247 29.075 11.777 28.925C11.307 28.765 10.912 28.555 10.592 28.295C10.272 28.035 10.027 27.75 9.85703 27.44C9.69703 27.12 9.61203 26.8 9.60203 26.48C9.60203 26.39 9.63203 26.32 9.69203 26.27C9.75203 26.21 9.82703 26.18 9.91703 26.18H10.652C10.742 26.18 10.822 26.205 10.892 26.255C10.972 26.295 11.032 26.38 11.072 26.51C11.172 26.87 11.342 27.15 11.582 27.35C11.832 27.55 12.117 27.69 12.437 27.77C12.767 27.84 13.097 27.875 13.427 27.875C14.117 27.875 14.677 27.71 15.107 27.38C15.537 27.05 15.752 26.565 15.752 25.925C15.752 25.275 15.557 24.81 15.167 24.53C14.777 24.25 14.237 24.11 13.547 24.11H12.122C12.022 24.11 11.937 24.08 11.867 24.02C11.807 23.96 11.777 23.875 11.777 23.765V23.36C11.777 23.27 11.792 23.195 11.822 23.135C11.862 23.065 11.902 23.005 11.942 22.955L14.852 19.775H10.427C10.327 19.775 10.242 19.745 10.172 19.685C10.112 19.625 10.082 19.54 10.082 19.43V18.86C10.082 18.75 10.112 18.665 10.172 18.605C10.242 18.535 10.327 18.5 10.427 18.5H16.412C16.522 18.5 16.607 18.535 16.667 18.605C16.737 18.665 16.772 18.75 16.772 18.86V19.4C16.772 19.47 16.752 19.535 16.712 19.595C16.682 19.645 16.647 19.695 16.607 19.745L13.712 22.97L13.952 22.985C14.612 23.005 15.187 23.125 15.677 23.345C16.177 23.565 16.562 23.895 16.832 24.335C17.112 24.765 17.252 25.31 17.252 25.97C17.252 26.64 17.087 27.21 16.757 27.68C16.427 28.15 15.972 28.515 15.392 28.775C14.822 29.025 14.167 29.15 13.427 29.15ZM19.3458 23.75C19.2458 23.75 19.1608 23.72 19.0908 23.66C19.0308 23.59 19.0008 23.505 19.0008 23.405V22.355C19.0008 22.255 19.0308 22.175 19.0908 22.115C19.1608 22.045 19.2458 22.01 19.3458 22.01H20.4258C20.5258 22.01 20.6058 22.045 20.6658 22.115C20.7358 22.175 20.7708 22.255 20.7708 22.355V23.405C20.7708 23.505 20.7358 23.59 20.6658 23.66C20.6058 23.72 20.5258 23.75 20.4258 23.75H19.3458ZM19.3458 29C19.2458 29 19.1608 28.97 19.0908 28.91C19.0308 28.84 19.0008 28.755 19.0008 28.655V27.605C19.0008 27.505 19.0308 27.425 19.0908 27.365C19.1608 27.295 19.2458 27.26 19.3458 27.26H20.4258C20.5258 27.26 20.6058 27.295 20.6658 27.365C20.7358 27.425 20.7708 27.505 20.7708 27.605V28.655C20.7708 28.755 20.7358 28.84 20.6658 28.91C20.6058 28.97 20.5258 29 20.4258 29H19.3458ZM26.5587 29.15C25.8687 29.15 25.2837 29.045 24.8037 28.835C24.3337 28.615 23.9487 28.315 23.6487 27.935C23.3487 27.555 23.1287 27.12 22.9887 26.63C22.8587 26.14 22.7837 25.62 22.7637 25.07C22.7537 24.8 22.7437 24.515 22.7337 24.215C22.7337 23.915 22.7337 23.61 22.7337 23.3C22.7437 22.99 22.7537 22.695 22.7637 22.415C22.7737 21.865 22.8487 21.345 22.9887 20.855C23.1387 20.365 23.3637 19.935 23.6637 19.565C23.9637 19.185 24.3487 18.89 24.8187 18.68C25.2987 18.46 25.8787 18.35 26.5587 18.35C27.2487 18.35 27.8287 18.46 28.2987 18.68C28.7787 18.89 29.1687 19.185 29.4687 19.565C29.7687 19.935 29.9887 20.365 30.1287 20.855C30.2787 21.345 30.3587 21.865 30.3687 22.415C30.3787 22.695 30.3837 22.99 30.3837 23.3C30.3937 23.61 30.3937 23.915 30.3837 24.215C30.3837 24.515 30.3787 24.8 30.3687 25.07C30.3587 25.62 30.2787 26.14 30.1287 26.63C29.9887 27.12 29.7687 27.555 29.4687 27.935C29.1787 28.315 28.7937 28.615 28.3137 28.835C27.8437 29.045 27.2587 29.15 26.5587 29.15ZM26.5587 27.86C27.3387 27.86 27.9137 27.605 28.2837 27.095C28.6637 26.585 28.8587 25.885 28.8687 24.995C28.8887 24.705 28.8987 24.425 28.8987 24.155C28.8987 23.875 28.8987 23.6 28.8987 23.33C28.8987 23.05 28.8887 22.775 28.8687 22.505C28.8587 21.635 28.6637 20.94 28.2837 20.42C27.9137 19.89 27.3387 19.625 26.5587 19.625C25.7887 19.625 25.2137 19.89 24.8337 20.42C24.4637 20.94 24.2687 21.635 24.2487 22.505C24.2487 22.775 24.2437 23.05 24.2337 23.33C24.2337 23.6 24.2337 23.875 24.2337 24.155C24.2437 24.425 24.2487 24.705 24.2487 24.995C24.2687 25.885 24.4687 26.585 24.8487 27.095C25.2287 27.605 25.7987 27.86 26.5587 27.86ZM36.0802 29.15C35.3902 29.15 34.8052 29.045 34.3252 28.835C33.8552 28.615 33.4702 28.315 33.1702 27.935C32.8702 27.555 32.6502 27.12 32.5102 26.63C32.3802 26.14 32.3052 25.62 32.2852 25.07C32.2752 24.8 32.2652 24.515 32.2552 24.215C32.2552 23.915 32.2552 23.61 32.2552 23.3C32.2652 22.99 32.2752 22.695 32.2852 22.415C32.2952 21.865 32.3702 21.345 32.5102 20.855C32.6602 20.365 32.8852 19.935 33.1852 19.565C33.4852 19.185 33.8702 18.89 34.3402 18.68C34.8202 18.46 35.4002 18.35 36.0802 18.35C36.7702 18.35 37.3502 18.46 37.8202 18.68C38.3002 18.89 38.6902 19.185 38.9902 19.565C39.2902 19.935 39.5102 20.365 39.6502 20.855C39.8002 21.345 39.8802 21.865 39.8902 22.415C39.9002 22.695 39.9052 22.99 39.9052 23.3C39.9152 23.61 39.9152 23.915 39.9052 24.215C39.9052 24.515 39.9002 24.8 39.8902 25.07C39.8802 25.62 39.8002 26.14 39.6502 26.63C39.5102 27.12 39.2902 27.555 38.9902 27.935C38.7002 28.315 38.3152 28.615 37.8352 28.835C37.3652 29.045 36.7802 29.15 36.0802 29.15ZM36.0802 27.86C36.8602 27.86 37.4352 27.605 37.8052 27.095C38.1852 26.585 38.3802 25.885 38.3902 24.995C38.4102 24.705 38.4202 24.425 38.4202 24.155C38.4202 23.875 38.4202 23.6 38.4202 23.33C38.4202 23.05 38.4102 22.775 38.3902 22.505C38.3802 21.635 38.1852 20.94 37.8052 20.42C37.4352 19.89 36.8602 19.625 36.0802 19.625C35.3102 19.625 34.7352 19.89 34.3552 20.42C33.9852 20.94 33.7902 21.635 33.7702 22.505C33.7702 22.775 33.7652 23.05 33.7552 23.33C33.7552 23.6 33.7552 23.875 33.7552 24.155C33.7652 24.425 33.7702 24.705 33.7702 24.995C33.7902 25.885 33.9902 26.585 34.3702 27.095C34.7502 27.605 35.3202 27.86 36.0802 27.86Z" fill="#7C68CB"/>
</svg>
