<svg width="30" height="36" viewBox="0 0 30 36" fill="none" xmlns="http://www.w3.org/2000/svg">
<path d="M16.7211 7.813C16.097 7.81218 15.4871 7.62763 14.9686 7.28269C14.4502 6.93775 14.0464 6.44792 13.8083 5.87513C13.5703 5.30235 13.5087 4.67235 13.6314 4.06481C13.754 3.45727 14.0554 2.89948 14.4973 2.46199C14.9393 2.0245 15.502 1.72696 16.1144 1.607C16.7267 1.48705 17.3611 1.55006 17.9373 1.78807C18.5136 2.02608 19.0058 2.4284 19.3517 2.94414C19.6976 3.45989 19.8817 4.06589 19.8807 4.68551C19.8782 5.51582 19.5442 6.31129 18.952 6.89754C18.3597 7.48379 17.5575 7.813 16.7211 7.813ZM16.7211 2.57566C16.3023 2.57647 15.8931 2.70047 15.5451 2.93199C15.1972 3.16352 14.9262 3.49219 14.7663 3.87651C14.6064 4.26083 14.5648 4.68357 14.6467 5.09136C14.7286 5.49915 14.9304 5.87371 15.2265 6.16773C15.5227 6.46176 15.9 6.66208 16.3107 6.7434C16.7215 6.82473 17.1473 6.7834 17.5344 6.62465C17.9216 6.4659 18.2526 6.19684 18.4858 5.85144C18.719 5.50604 18.8439 5.09978 18.8448 4.68396C18.8439 4.12506 18.6199 3.58928 18.2218 3.19407C17.8238 2.79886 17.2841 2.57648 16.7211 2.57566Z" fill="#7C68CB"/>
<path d="M14.6249 36C14.0176 35.9984 13.4321 35.7745 12.9807 35.371C12.5294 34.9676 12.2437 34.413 12.1786 33.8135L10.8609 21.6471C10.7158 20.329 10.9947 18.9991 11.6575 17.848L12.9856 15.5304C13.1207 15.294 13.184 15.0237 13.1677 14.7523C13.1514 14.4809 13.0563 14.22 12.8939 14.0011L9.36916 9.25539C9.11192 8.90812 8.91046 8.52337 8.77195 8.11484L6.96478 2.81837C6.87287 2.55126 6.83536 2.26867 6.85444 1.98704C6.87351 1.70541 6.94877 1.43035 7.07586 1.17785C7.20295 0.92535 7.37933 0.700449 7.59474 0.516218C7.81015 0.331987 8.0603 0.192102 8.33065 0.104694C8.601 0.0172853 8.88615 -0.0159026 9.16953 0.00705892C9.4529 0.0300204 9.72886 0.108673 9.98135 0.238446C10.2338 0.368218 10.4578 0.546522 10.6403 0.762992C10.8228 0.979462 10.9601 1.22978 11.0442 1.4994L12.5256 6.20246C12.6469 6.58726 12.8289 6.95053 13.0648 7.27872L14.2494 8.92885C14.313 9.01734 14.3969 9.0895 14.4942 9.13931C14.5915 9.18913 14.6993 9.21517 14.8088 9.21528L16.7216 9.2127H18.2848C18.4122 9.21305 18.5379 9.18451 18.6525 9.12925C18.767 9.074 18.8673 8.9935 18.9458 8.89389L25.0846 1.13224C25.2581 0.913076 25.4746 0.731197 25.7211 0.59765C25.9675 0.464102 26.2387 0.381673 26.5182 0.355367C26.7977 0.329061 27.0797 0.359427 27.347 0.444622C27.6143 0.529817 27.8614 0.668063 28.0733 0.850965C28.4717 1.1952 28.7226 1.67747 28.7747 2.19922C28.8269 2.72098 28.6764 3.24281 28.354 3.65809L21.3698 12.6492C21.1523 12.9295 21.0048 13.2569 20.9394 13.6047L20.0376 18.4219C19.9979 18.6305 20.041 18.8462 20.1578 19.024L23.1449 23.5749C23.6183 24.2978 23.8313 25.1585 23.7493 26.0169L23.0076 33.7251C22.9439 34.3567 22.6331 34.9382 22.142 35.3447C21.6509 35.7512 21.0188 35.9501 20.3816 35.8987C20.0538 35.8708 19.7352 35.7771 19.445 35.6233C19.1549 35.4695 18.8992 35.2588 18.6935 35.0039C18.4878 34.7491 18.3364 34.4554 18.2484 34.1408C18.1605 33.8261 18.1378 33.497 18.1818 33.1733L19.0939 26.437C19.1188 26.2553 19.0746 26.0709 18.9701 25.9197L16.558 22.4287C16.4973 22.3406 16.4085 22.2753 16.3058 22.2435C16.2032 22.2117 16.0928 22.2151 15.9924 22.2533C15.8919 22.2914 15.8074 22.3621 15.7524 22.4538C15.6975 22.5455 15.6752 22.653 15.6893 22.7588L17.0749 33.233C17.1176 33.5548 17.0954 33.8818 17.0096 34.195C16.9238 34.5082 16.7761 34.8013 16.5751 35.0573C16.3741 35.3132 16.1238 35.5269 15.8388 35.686C15.5538 35.845 15.2397 35.9462 14.915 35.9835C14.8187 35.9946 14.7218 36.0001 14.6249 36ZM8.99674 1.033C8.89933 1.03292 8.80234 1.04554 8.70824 1.07054C8.56149 1.10937 8.42433 1.17771 8.30527 1.27131C8.1862 1.36491 8.08776 1.48178 8.01605 1.61469C7.94433 1.74759 7.90086 1.8937 7.88833 2.04396C7.8758 2.19422 7.89448 2.34544 7.94321 2.48824L9.75038 7.78471C9.85545 8.09252 10.0078 8.38236 10.202 8.64398L13.7278 13.3877C14.0091 13.7667 14.1737 14.2185 14.2019 14.6885C14.23 15.1585 14.1204 15.6265 13.8863 16.0359L12.5583 18.3545C12.0031 19.319 11.7697 20.4333 11.8916 21.5375L13.2093 33.704C13.2315 33.8892 13.2902 34.0682 13.3821 34.2308C13.4739 34.3934 13.5972 34.5365 13.7448 34.6518C13.8924 34.7671 14.0614 34.8524 14.2422 34.9029C14.423 34.9533 14.6121 34.9679 14.7986 34.9458C14.985 34.9236 15.1653 34.8653 15.3291 34.7739C15.4928 34.6826 15.6368 34.5602 15.7529 34.4136C15.8689 34.267 15.9548 34.0991 16.0055 33.9196C16.0561 33.74 16.0707 33.5523 16.0483 33.3672L14.6622 22.892C14.6175 22.5571 14.6879 22.217 14.8618 21.9266C15.0358 21.6362 15.3033 21.4126 15.621 21.2917C15.9388 21.1708 16.2884 21.1597 16.6132 21.2603C16.9381 21.3609 17.2193 21.5673 17.4116 21.8461L19.8242 25.3371C20.0742 25.6985 20.1799 26.1394 20.1205 26.5738L19.2084 33.3101C19.1831 33.4958 19.1961 33.6846 19.2466 33.8651C19.2971 34.0457 19.384 34.2141 19.502 34.3603C19.6201 34.5065 19.7668 34.6273 19.9333 34.7155C20.0998 34.8037 20.2826 34.8574 20.4706 34.8733C20.836 34.9017 21.198 34.7871 21.4794 34.5542C21.7608 34.3212 21.9393 33.9882 21.9769 33.6264L22.7186 25.9213C22.778 25.2947 22.6223 24.6666 22.2768 24.139L19.2897 19.5876C19.0268 19.1887 18.9297 18.7042 19.0188 18.2357L19.9206 13.4185C20.0164 12.9106 20.2319 12.4324 20.5494 12.0229L27.5336 3.03023C27.6947 2.82261 27.7699 2.56175 27.7438 2.30093C27.7177 2.04012 27.5923 1.79903 27.3932 1.62692C27.2873 1.53546 27.1638 1.46632 27.0301 1.4237C26.8965 1.38108 26.7555 1.36587 26.6157 1.379C26.476 1.39213 26.3404 1.43332 26.2171 1.50007C26.0939 1.56682 25.9856 1.65774 25.8989 1.76731L19.759 9.52844C19.584 9.75101 19.36 9.93089 19.1043 10.0543C18.8485 10.1778 18.5677 10.2415 18.2833 10.2406L14.8083 10.2432C14.5336 10.2427 14.263 10.1771 14.0189 10.0519C13.7749 9.92669 13.5644 9.74547 13.4051 9.52329L12.2205 7.87316C11.9211 7.4566 11.6903 6.99541 11.5368 6.50688L10.0534 1.80433C9.98291 1.58083 9.84243 1.3855 9.65238 1.24677C9.46233 1.10803 9.23264 1.03314 8.99674 1.033Z" fill="#7C68CB"/>
<path d="M25.6803 21.6563C25.4815 21.6607 25.2838 21.6257 25.0987 21.5536C24.9136 21.4815 24.7447 21.3736 24.6019 21.2362C23.9286 20.5677 24.0581 19.385 24.9018 18.5474C25.7456 17.7097 26.9348 17.5791 27.6102 18.2491C27.7807 18.4276 27.906 18.6438 27.9756 18.8799C28.0452 19.1159 28.0572 19.3651 28.0106 19.6066C27.9135 20.1086 27.6669 20.5701 27.3029 20.9316C26.9388 21.293 26.4739 21.5378 25.9683 21.6342C25.873 21.649 25.7767 21.6564 25.6803 21.6563ZM26.5246 18.8518C26.4814 18.8519 26.4383 18.8553 26.3956 18.8621C26.1074 18.9242 25.8432 19.0674 25.6347 19.2744C25.4261 19.4815 25.2819 19.7437 25.2193 20.0299C25.201 20.1131 25.2019 20.1994 25.2219 20.2823C25.2419 20.3652 25.2805 20.4426 25.3348 20.5086C25.4006 20.5612 25.4775 20.5983 25.5597 20.6171C25.642 20.6359 25.7275 20.6359 25.8098 20.6171C26.0981 20.5542 26.3623 20.4107 26.571 20.2035C26.7798 19.9963 26.9243 19.734 26.9876 19.4478C27.0064 19.366 27.0063 19.2811 26.9873 19.1995C26.9682 19.1178 26.9308 19.0415 26.8778 18.9762C26.7811 18.89 26.6539 18.8454 26.5241 18.8523L26.5246 18.8518Z" fill="#7C68CB"/>
<path d="M1.50649 20.8907C1.30774 20.8948 1.11016 20.8595 0.925338 20.7868C0.740514 20.7141 0.572166 20.6056 0.430166 20.4674C-0.243185 19.799 -0.113177 18.6163 0.730066 17.7786C1.57331 16.9409 2.76359 16.8103 3.43849 17.4803C4.11184 18.1488 3.97458 19.3249 3.13134 20.162C2.70703 20.6072 2.12344 20.8689 1.50649 20.8907ZM2.35698 18.0835C2.01594 18.1075 1.69654 18.2583 1.46246 18.5057C1.05172 18.914 0.91187 19.4909 1.16256 19.7398C1.3827 19.9584 1.9452 19.8864 2.39946 19.4349C2.85371 18.9834 2.92623 18.426 2.70661 18.2074C2.65944 18.1648 2.60419 18.1318 2.54408 18.1106C2.48397 18.0893 2.42071 18.0801 2.35698 18.0835Z" fill="#7C68CB"/>
<path d="M6.57009 19.1423C6.37134 19.1464 6.17376 19.1111 5.98894 19.0385C5.80411 18.9658 5.63576 18.8572 5.49376 18.7191C4.82041 18.0506 4.95042 16.8679 5.79366 16.0302C6.63691 15.1926 7.82615 15.062 8.50209 15.732C9.17544 16.4005 9.0387 17.576 8.19545 18.4137C7.77095 18.8588 7.18719 19.1205 6.57009 19.1423ZM7.41644 16.3347C7.37325 16.3348 7.33013 16.3382 7.28747 16.3449C6.99697 16.4007 6.73099 16.5444 6.52606 16.7563C6.11532 17.1641 5.97547 17.7416 6.22616 17.9904C6.4463 18.2085 7.00777 18.1375 7.46306 17.6855C7.91834 17.2335 7.98982 16.6761 7.76969 16.4581C7.67301 16.3722 7.546 16.3278 7.41644 16.3347Z" fill="#7C68CB"/>
<path d="M27.2435 19.1274C27.1399 19.1274 27.0387 19.0966 26.9529 19.039C26.8672 18.9813 26.8008 18.8994 26.7623 18.8039L24.2072 12.4744C24.1776 12.401 24.1655 12.3219 24.1717 12.2431C24.1779 12.1643 24.2023 12.088 24.2431 12.0201C24.2838 11.9523 24.3397 11.8946 24.4066 11.8516C24.4734 11.8087 24.5493 11.7816 24.6283 11.7725C25.6721 11.6805 26.7164 11.9446 27.5885 12.5214C28.4606 13.0982 29.1085 13.953 29.4252 14.9447C29.4478 15.0084 29.4575 15.0759 29.4538 15.1434C29.4501 15.2108 29.433 15.2769 29.4036 15.3378C29.3742 15.3987 29.333 15.4533 29.2824 15.4983C29.2317 15.5434 29.1726 15.5782 29.1084 15.6006C29.0443 15.623 28.9763 15.6327 28.9083 15.629C28.8404 15.6253 28.7739 15.6084 28.7125 15.5792C28.6512 15.55 28.5962 15.5091 28.5508 15.4588C28.5054 15.4086 28.4704 15.3499 28.4478 15.2862C28.2495 14.6281 27.8603 14.0426 27.3289 13.6027C26.7975 13.1628 26.1474 12.8881 25.4597 12.8128L27.7226 18.4219C27.7541 18.4999 27.7659 18.5845 27.7568 18.6681C27.7478 18.7517 27.7182 18.8318 27.6707 18.9015C27.6232 18.9711 27.5593 19.0281 27.4844 19.0675C27.4096 19.1069 27.3262 19.1275 27.2414 19.1274H27.2435Z" fill="#7C68CB"/>
<path d="M3.28155 18.6908C3.17667 18.6908 3.07427 18.6592 2.98789 18.6002C2.90151 18.5411 2.83521 18.4574 2.79777 18.3602L0.802063 13.183C0.715747 12.9574 0.722606 12.7071 0.821147 12.4865C0.919689 12.2659 1.10195 12.0928 1.32831 12.0049L5.52795 10.3543C5.64254 10.3092 5.76503 10.2874 5.88825 10.2899C6.01146 10.2925 6.13292 10.3194 6.24551 10.3692C6.35811 10.4189 6.45956 10.4905 6.54393 10.5797C6.62831 10.6689 6.6939 10.7739 6.73687 10.8885L8.84343 16.2879C8.89309 16.415 8.88983 16.5566 8.83436 16.6814C8.7789 16.8062 8.67577 16.904 8.54767 16.9533C8.41957 17.0026 8.27699 16.9993 8.1513 16.9443C8.0256 16.8892 7.92709 16.7868 7.87743 16.6596L5.80558 11.3513L1.81054 12.9218L3.76584 17.9925C3.79592 18.0704 3.80647 18.1544 3.79656 18.2372C3.78665 18.3201 3.75659 18.3993 3.70898 18.468C3.66136 18.5367 3.59762 18.5929 3.52324 18.6318C3.44886 18.6706 3.36609 18.6908 3.28207 18.6908H3.28155Z" fill="#7C68CB"/>
<path d="M1.93485 15.2728C1.81465 15.2731 1.6981 15.2319 1.60515 15.1562C1.51221 15.0806 1.44866 14.9752 1.42539 14.8581C1.40213 14.741 1.4206 14.6196 1.47763 14.5146C1.53467 14.4095 1.62672 14.3275 1.73802 14.2824L6.68197 12.2682C6.74492 12.2425 6.81235 12.2294 6.8804 12.2297C6.94845 12.2299 7.0158 12.2434 7.07859 12.2694C7.14138 12.2955 7.19839 12.3335 7.24636 12.3815C7.29433 12.4294 7.33232 12.4862 7.35817 12.5487C7.38402 12.6112 7.39721 12.6781 7.397 12.7457C7.39679 12.8133 7.38318 12.8801 7.35694 12.9425C7.3307 13.0048 7.29236 13.0614 7.24409 13.109C7.19582 13.1566 7.13857 13.1944 7.07562 13.22L2.13167 15.2342C2.06922 15.2597 2.00236 15.2728 1.93485 15.2728Z" fill="#7C68CB"/>
</svg>
