<svg width="66" height="11" viewBox="0 0 66 11" fill="none" xmlns="http://www.w3.org/2000/svg">
<path d="M10.7613 4.98501C10.9778 4.76477 11.0542 4.44152 10.9608 4.14104C10.8672 3.84055 10.6234 3.62605 10.3238 3.58053L7.66044 3.17659C7.547 3.15934 7.44899 3.08509 7.39833 2.97772L6.20759 0.458889C6.07389 0.175877 5.80253 0 5.50011 0C5.19791 0 4.92655 0.175877 4.79285 0.458889L3.60189 2.97795C3.55123 3.08532 3.453 3.15957 3.33956 3.17682L0.676158 3.58076C0.376822 3.62605 0.132772 3.84078 0.0391609 4.14127C-0.0542301 4.44175 0.0222007 4.765 0.238718 4.98524L2.16579 6.94587C2.24795 7.02955 2.28561 7.15002 2.26623 7.26773L1.81161 10.0362C1.7713 10.2799 1.83253 10.517 1.98363 10.7039C2.21843 10.9952 2.62834 11.0839 2.95609 10.9041L5.338 9.59689C5.43756 9.54241 5.56288 9.54287 5.66222 9.59689L8.04435 10.9041C8.16021 10.9678 8.28378 11 8.41131 11C8.64413 11 8.86483 10.8919 9.01659 10.7039C9.16791 10.517 9.22892 10.2795 9.18861 10.0362L8.73377 7.26773C8.71439 7.14979 8.75205 7.02955 8.83421 6.94587L10.7613 4.98501Z" fill="#FFBE00"/>
<path d="M24.5113 4.98501C24.7278 4.76477 24.8042 4.44152 24.7108 4.14104C24.6172 3.84055 24.3734 3.62605 24.0738 3.58053L21.4104 3.17659C21.297 3.15934 21.199 3.08509 21.1483 2.97772L19.9576 0.458889C19.8239 0.175877 19.5525 0 19.2501 0C18.9479 0 18.6765 0.175877 18.5428 0.458889L17.3519 2.97795C17.3012 3.08532 17.203 3.15957 17.0896 3.17682L14.4262 3.58076C14.1268 3.62605 13.8828 3.84078 13.7892 4.14127C13.6958 4.44175 13.7722 4.765 13.9887 4.98524L15.9158 6.94587C15.9979 7.02955 16.0356 7.15002 16.0162 7.26773L15.5616 10.0362C15.5213 10.2799 15.5825 10.517 15.7336 10.7039C15.9684 10.9952 16.3783 11.0839 16.7061 10.9041L19.088 9.59689C19.1876 9.54241 19.3129 9.54287 19.4122 9.59689L21.7944 10.9041C21.9102 10.9678 22.0338 11 22.1613 11C22.3941 11 22.6148 10.8919 22.7666 10.7039C22.9179 10.517 22.9789 10.2795 22.9386 10.0362L22.4838 7.26773C22.4644 7.14979 22.5021 7.02955 22.5842 6.94587L24.5113 4.98501Z" fill="#FFBE00"/>
<path d="M38.2613 4.98501C38.4778 4.76477 38.5542 4.44152 38.4608 4.14104C38.3672 3.84055 38.1234 3.62605 37.8238 3.58053L35.1604 3.17659C35.047 3.15934 34.949 3.08509 34.8983 2.97772L33.7076 0.458889C33.5739 0.175877 33.3025 0 33.0001 0C32.6979 0 32.4265 0.175877 32.2928 0.458889L31.1019 2.97795C31.0512 3.08532 30.953 3.15957 30.8396 3.17682L28.1762 3.58076C27.8768 3.62605 27.6328 3.84078 27.5392 4.14127C27.4458 4.44175 27.5222 4.765 27.7387 4.98524L29.6658 6.94587C29.7479 7.02955 29.7856 7.15002 29.7662 7.26773L29.3116 10.0362C29.2713 10.2799 29.3325 10.517 29.4836 10.7039C29.7184 10.9952 30.1283 11.0839 30.4561 10.9041L32.838 9.59689C32.9376 9.54241 33.0629 9.54287 33.1622 9.59689L35.5444 10.9041C35.6602 10.9678 35.7838 11 35.9113 11C36.1441 11 36.3648 10.8919 36.5166 10.7039C36.6679 10.517 36.7289 10.2795 36.6886 10.0362L36.2338 7.26773C36.2144 7.14979 36.2521 7.02955 36.3342 6.94587L38.2613 4.98501Z" fill="#FFBE00"/>
<path d="M52.0113 4.98501C52.2278 4.76477 52.3042 4.44152 52.2108 4.14104C52.1172 3.84055 51.8734 3.62605 51.5738 3.58053L48.9104 3.17659C48.797 3.15934 48.699 3.08509 48.6483 2.97772L47.4576 0.458889C47.3239 0.175877 47.0525 0 46.7501 0C46.4479 0 46.1765 0.175877 46.0428 0.458889L44.8519 2.97795C44.8012 3.08532 44.703 3.15957 44.5896 3.17682L41.9262 3.58076C41.6268 3.62605 41.3828 3.84078 41.2892 4.14127C41.1958 4.44175 41.2722 4.765 41.4887 4.98524L43.4158 6.94587C43.4979 7.02955 43.5356 7.15002 43.5162 7.26773L43.0616 10.0362C43.0213 10.2799 43.0825 10.517 43.2336 10.7039C43.4684 10.9952 43.8783 11.0839 44.2061 10.9041L46.588 9.59689C46.6876 9.54241 46.8129 9.54287 46.9122 9.59689L49.2944 10.9041C49.4102 10.9678 49.5338 11 49.6613 11C49.8941 11 50.1148 10.8919 50.2666 10.7039C50.4179 10.517 50.4789 10.2795 50.4386 10.0362L49.9838 7.26773C49.9644 7.14979 50.0021 7.02955 50.0842 6.94587L52.0113 4.98501Z" fill="#FFBE00"/>
<path d="M65.7613 4.98501C65.9778 4.76477 66.0542 4.44152 65.9608 4.14104C65.8672 3.84055 65.6234 3.62605 65.3238 3.58053L62.6604 3.17659C62.547 3.15934 62.449 3.08509 62.3983 2.97772L61.2076 0.458889C61.0739 0.175877 60.8025 0 60.5001 0C60.1979 0 59.9265 0.175877 59.7928 0.458889L58.6019 2.97795C58.5512 3.08532 58.453 3.15957 58.3396 3.17682L55.6762 3.58076C55.3768 3.62605 55.1328 3.84078 55.0392 4.14127C54.9458 4.44175 55.0222 4.765 55.2387 4.98524L57.1658 6.94587C57.2479 7.02955 57.2856 7.15002 57.2662 7.26773L56.8116 10.0362C56.7713 10.2799 56.8325 10.517 56.9836 10.7039C57.2184 10.9952 57.6283 11.0839 57.9561 10.9041L60.338 9.59689C60.4376 9.54241 60.5629 9.54287 60.6622 9.59689L63.0444 10.9041C63.1602 10.9678 63.2838 11 63.4113 11C63.6441 11 63.8648 10.8919 64.0166 10.7039C64.1679 10.517 64.2289 10.2795 64.1886 10.0362L63.7338 7.26773C63.7144 7.14979 63.7521 7.02955 63.8342 6.94587L65.7613 4.98501Z" fill="#FFBE00"/>
</svg>
