<svg width="194" height="84" viewBox="0 0 194 84" fill="none" xmlns="http://www.w3.org/2000/svg">
<path d="M24.4124 81.5976C24.4126 81.597 24.4129 81.5963 24.4131 81.5957L24.4124 81.5976ZM170 1C182.703 1 193 11.2974 193 24V43.9474C193 56.6499 182.703 66.9474 170 66.9474H51.6608C46.9739 66.9474 42.4217 68.5153 38.7289 71.4015L24.7664 82.3143C23.7717 83.351 22.0289 82.2889 22.5345 80.9094L26.8235 69.2074C27.2256 68.1101 26.4134 66.9474 25.2447 66.9474H13.1382C6.43448 66.9474 1 61.5129 1 54.8091V24C1 11.2975 11.2974 1 24 1H170Z" fill="white" fill-opacity="0.8" stroke="white" stroke-width="2"/>
</svg>
