<svg width="253" height="99" viewBox="0 0 253 99" fill="none" xmlns="http://www.w3.org/2000/svg">
<path d="M31.552 97.1084L31.2355 96.6605L31.2352 96.6602L30.9748 96.2917L31.2351 96.66L31.2353 96.6604L31.5519 97.1084C31.5527 97.1079 31.5534 97.1074 31.5541 97.1069L31.552 97.1084ZM31.5893 97.082C30.474 98.1565 28.6512 96.945 29.2427 95.4856L34.7231 81.9629C35.3377 80.4462 34.2216 78.7895 32.5851 78.7895H16.2872C7.84433 78.7895 1 71.9452 1 63.5023V24C1 11.2975 11.2974 1 24 1H229C241.703 1 252 11.2974 252 24V55.7895C252 68.492 241.703 78.7895 229 78.7895H64.1415C59.8001 78.7895 55.5655 80.135 52.0203 82.6408L31.5893 97.082ZM31.6286 97.0429C31.6281 97.0434 31.6276 97.0439 31.6271 97.0444C31.6276 97.0438 31.6282 97.0433 31.6287 97.0428L31.6286 97.0429Z" fill="white" fill-opacity="0.8" stroke="white" stroke-width="2"/>
</svg>
